<?xml version="1.0" encoding="UTF-8" standalone="no"?>
<svg
   width="45"
   height="45"
   version="1.1"
   id="svg38472"
   xml:space="preserve"
   xmlns="http://www.w3.org/2000/svg"
   xmlns:svg="http://www.w3.org/2000/svg"><defs
     id="defs38476" /><g
     id="g21124"
     transform="matrix(1.7025815,0,0,1.7025815,-9.7801112,-416.25479)"><ellipse
       style="fill:#3f4164;fill-opacity:1;stroke-width:0.178905"
       id="path277-7-0-0-4-0"
       cx="18.697626"
       cy="267.99762"
       rx="7.3209786"
       ry="1.2598643" /><ellipse
       style="fill:#3f4164;fill-opacity:1;stroke-width:0.165175"
       id="path277-36-7-3"
       cx="18.696455"
       cy="267.70602"
       rx="7.2711062"
       ry="1.0812898" /><ellipse
       style="fill:#3f4164;fill-opacity:1;stroke-width:0.165175"
       id="path277-7-1-84-9"
       cx="18.69426"
       cy="268.24371"
       rx="7.2711062"
       ry="1.0812898" /><ellipse
       style="fill:#25223a;fill-opacity:1;stroke-width:0.145996"
       id="path277-3-0-5-1"
       cx="18.637112"
       cy="267.18054"
       rx="6.4267616"
       ry="0.95572674" /><ellipse
       style="fill:#3f4164;fill-opacity:1;stroke-width:0.15222"
       id="path277-3-6-63-0-9"
       cx="18.67482"
       cy="266.60876"
       rx="6.7008128"
       ry="0.99648094" /><ellipse
       style="fill:#25223a;fill-opacity:1;stroke-width:0.129652"
       id="path277-3-6-7-2-36-6"
       cx="18.612997"
       cy="266.50418"
       rx="5.7072935"
       ry="0.84873432" /><path
       style="fill:#3f4164;fill-opacity:1;stroke:#25223a;stroke-width:0.300616px;stroke-linecap:butt;stroke-linejoin:miter;stroke-opacity:1"
       d="m 13.492209,266.46508 0.594964,-2.16704 h 9.29105 l 0.550517,2.16434 z"
       id="path422-0-1-93" /><ellipse
       style="fill:#3f4164;fill-opacity:1;stroke-width:0.112855"
       id="path277-3-6-5-6-0-3"
       cx="18.712685"
       cy="266.33267"
       rx="5.0031943"
       ry="0.73357195" /><ellipse
       style="fill:#25223a;fill-opacity:1;stroke-width:0.124113"
       id="path277-3-6-3-1-63-8"
       cx="18.716455"
       cy="264.01331"
       rx="5.4634838"
       ry="0.81247711" /><ellipse
       style="fill:#3f4164;fill-opacity:1;stroke-width:0.101028"
       id="path277-3-6-3-6-5-2-0"
       cx="18.671188"
       cy="263.92075"
       rx="4.4472432"
       ry="0.66135156" /><ellipse
       style="fill:#000000;stroke-width:0.118516"
       id="path277-3-6-3-2-5-0-5"
       cx="18.692238"
       cy="263.41504"
       rx="5.2171011"
       ry="0.77583748" /><ellipse
       style="fill:#1a1a1a;stroke-width:0.110125"
       id="path277-3-6-3-2-1-4-6-6"
       cx="18.763815"
       cy="263.18741"
       rx="5.2721705"
       ry="0.662862" /><ellipse
       style="fill:#25223a;fill-opacity:1;stroke-width:0.165175"
       id="path277-7-1-84-5-6"
       cx="18.88975"
       cy="263.29626"
       rx="7.2711062"
       ry="1.0812898" /><ellipse
       style="fill:#3f4164;fill-opacity:1;stroke-width:0.166521"
       id="path277-7-1-84-5-4-4"
       cx="18.88028"
       cy="263.11935"
       rx="7.3303566"
       ry="1.0901009" /><g
       id="g10015-3-00"
       transform="matrix(0.97633691,0,0,0.97633691,-69.305209,166.56636)"
       style="fill:#3f4164;fill-opacity:1;stroke:#25223a;stroke-opacity:1"><path
         style="fill:#3f4164;fill-opacity:1;stroke:#25223a;stroke-width:0.264583px;stroke-linecap:butt;stroke-linejoin:miter;stroke-opacity:1"
         d="m 82.354972,98.89238 15.883424,-0.127669 c 0,0 0.966647,-0.157523 0.750099,-1.12367 -0.216548,-0.966147 -1.210196,-0.774248 -1.210196,-0.774248 l 2.165289,-2.75001 c 0,0 0.964692,-1.477769 0.908632,-2.553507 -0.0561,-1.075737 -0.27887,-3.825981 -3.449151,-5.132715 -3.170282,-1.306735 -5.393314,0.04925 -5.393314,0.04925 l -0.480404,-0.0771 c 0,0 0.62923,-0.682424 0.837153,-0.747948 0.207922,-0.06552 0.102457,-0.299326 0.102457,-0.299326 0,0 -0.359662,-0.187084 -0.671791,-0.179102 -0.312131,0.008 0.101548,-0.491611 0.101548,-0.491611 0,0 1.037873,-0.955371 1.763138,-0.905955 0.725265,0.04942 -0.291383,-0.468849 -0.291383,-0.468849 0,0 -0.829741,-0.460325 -1.203606,-0.283038 -0.373864,0.177286 -0.850765,1.065665 -0.850765,1.065665 0,0 -0.261556,0.309231 -0.323323,-0.02479 -0.06177,-0.33402 0.345977,-1.111821 0.345977,-1.111821 0,0 -0.765852,-1.614181 -0.929608,-1.36161 -0.163753,0.252572 -0.8772,1.290799 -0.8772,1.290799 0,0 0.60688,0.945184 0.381069,1.193406 -0.225811,0.248219 -0.382281,-0.142076 -0.382281,-0.142076 L 88.976231,83.31846 c 0,0 -0.960324,-0.613349 -1.442808,-0.162034 -0.482486,0.451316 -0.441438,0.587164 -0.441438,0.587164 0,0 0.102626,0.06763 0.336475,-0.0155 0.233852,-0.08312 0.863534,0.3658 0.863534,0.3658 0,0 0.933374,0.719367 0.73382,0.900088 -0.199557,0.180721 -0.557406,0.259853 -0.557406,0.259853 0,0 -0.269362,0.09901 -0.19589,0.279895 0.07347,0.180877 0.332711,0.315772 0.332711,0.315772 0,0 0.199763,-0.02841 0.313915,0.05614 0.114152,0.08455 0.233937,0.512038 0.233937,0.512038 0,0 -0.418367,0.146661 -0.557575,0.135292 -0.139205,-0.01138 -0.976471,-0.689277 -0.976471,-0.689277 0,0 -4.545367,-1.132959 -6.953052,2.653671 -2.407684,3.786631 2.042213,7.966313 2.042213,7.966313 0,0 -1.056791,0.439639 -0.992256,1.306044 0.06453,0.866402 0.639032,1.102664 0.639032,1.102664 z"
         id="path8573-7-4" /><path
         style="fill:#3f4164;fill-opacity:1;stroke:#25223a;stroke-width:0.264583px;stroke-linecap:butt;stroke-linejoin:miter;stroke-opacity:1"
         d="m 89.549821,98.655446 -1.731026,-1.648622 c 0,0 -0.447495,-0.727321 -0.01704,-1.193157 0.430453,-0.465836 1.506167,-1.854906 1.506167,-1.854906 l 0.0021,-6.796543 -0.397521,-0.527386"
         id="path8575-4-6" /><path
         style="fill:#3f4164;fill-opacity:1;stroke:#25223a;stroke-width:0.264583px;stroke-linecap:butt;stroke-linejoin:miter;stroke-opacity:1"
         d="m 91.205837,98.623591 1.731026,-1.648622 c 0,0 0.447495,-0.727321 0.01704,-1.193157 -0.430453,-0.465836 -1.506167,-1.854906 -1.506167,-1.854906 l -0.0021,-6.796543 0.397521,-0.527386"
         id="path8575-6-5-2" /><rect
         style="fill:#3f4164;fill-opacity:1;stroke:#25223a;stroke-width:0.243561;stroke-opacity:1"
         id="rect9856-2-6"
         width="2.9433615"
         height="2.9433615"
         x="130.56795"
         y="2.7630801"
         rx="0.5"
         ry="0.5"
         transform="rotate(45)" /><rect
         style="fill:#3f4164;fill-opacity:1;stroke:#25223a;stroke-width:0.162397;stroke-opacity:1"
         id="rect9856-5-5-7"
         width="1.9625242"
         height="1.9625242"
         x="131.0712"
         y="3.2533317"
         rx="0.33338144"
         ry="0.33338144"
         transform="rotate(45)" /><path
         style="fill:#3f4164;fill-opacity:1;stroke:#25223a;stroke-width:0.264583px;stroke-linecap:butt;stroke-linejoin:miter;stroke-opacity:1"
         d="M 82.595018,96.489916 87.592793,96.35007"
         id="path9889-4-56" /><path
         style="fill:#3f4164;fill-opacity:1;stroke:#25223a;stroke-width:0.264583px;stroke-linecap:butt;stroke-linejoin:miter;stroke-opacity:1"
         d="m 93.195954,96.444675 4.753308,0.115014"
         id="path9893-7-98" /><path
         style="fill:#3f4164;fill-opacity:1;stroke:#25223a;stroke-width:0.264583px;stroke-linecap:butt;stroke-linejoin:miter;stroke-opacity:1"
         d="m 94.530898,96.393676 c 0,0 2.524075,-3.571626 2.127835,-6.147247 -0.396243,-2.575618 -1.23952,-3.349956 -1.23952,-3.349956 0,0 -1.084834,-1.141322 -1.851975,-0.819668"
         id="path9899-4-7" /><path
         style="fill:#3f4164;fill-opacity:1;stroke:#25223a;stroke-width:0.264583px;stroke-linecap:butt;stroke-linejoin:miter;stroke-opacity:1"
         d="m 86.181627,96.292358 c 0,0 -2.524075,-3.571626 -2.127835,-6.147247 0.396243,-2.575618 1.23952,-3.349956 1.23952,-3.349956 0,0 1.084834,-1.141322 1.851975,-0.819668"
         id="path9899-6-4-2" /><path
         style="fill:#3f4164;fill-opacity:1;stroke:#25223a;stroke-width:0.264583px;stroke-linecap:butt;stroke-linejoin:miter;stroke-opacity:1"
         d="m 96.799772,96.392163 c 0,0 4.100638,-4.827752 2.953485,-7.123166 -1.147156,-2.295411 -3.131343,-3.081075 -3.131343,-3.081075"
         id="path9901-3-8" /><path
         style="fill:#3f4164;fill-opacity:1;stroke:#25223a;stroke-width:0.264583px;stroke-linecap:butt;stroke-linejoin:miter;stroke-opacity:1"
         d="m 83.896596,96.302753 c 0,0 -4.100638,-4.827752 -2.953488,-7.123166 1.14716,-2.295411 3.131348,-3.081075 3.131348,-3.081075"
         id="path9901-9-0-29" /></g><ellipse
       style="fill:#000000;stroke-width:0.392422"
       id="path2053-33-9"
       cx="17.385769"
       cy="265.60849"
       rx="0.48365179"
       ry="0.51316285" /><ellipse
       style="fill:#000000;stroke-width:0.392422"
       id="path2053-3-8-6"
       cx="20.214201"
       cy="265.60797"
       rx="0.48365179"
       ry="0.51316285" /></g></svg>
