<?xml version="1.0" encoding="UTF-8" standalone="no"?>
<svg
   width="45"
   height="45"
   version="1.1"
   id="svg38472"
   xml:space="preserve"
   xmlns="http://www.w3.org/2000/svg"
   xmlns:svg="http://www.w3.org/2000/svg"><defs
     id="defs38476" /><g
     id="g22660"
     transform="matrix(1.7026772,0,0,1.7026772,-86.155544,-456.09227)"><ellipse
       style="fill:#3f4164;fill-opacity:1;stroke-width:0.184774"
       id="path277-7-0-0-8-2"
       cx="64.421455"
       cy="291.11761"
       rx="6.5199213"
       ry="1.5089868" /><ellipse
       style="fill:#3f4164;fill-opacity:1;stroke-width:0.170594"
       id="path277-36-5-2"
       cx="64.42041"
       cy="290.76837"
       rx="6.4755063"
       ry="1.2951013" /><ellipse
       style="fill:#3f4164;fill-opacity:1;stroke-width:0.170594"
       id="path277-7-1-0-6"
       cx="64.418457"
       cy="291.41238"
       rx="6.4755063"
       ry="1.2951013" /><ellipse
       style="fill:#25223a;fill-opacity:1;stroke-width:0.150784"
       id="path277-3-0-9-4"
       cx="64.367561"
       cy="290.13901"
       rx="5.7235494"
       ry="1.1447098" /><ellipse
       style="fill:#3f4164;fill-opacity:1;stroke-width:0.157214"
       id="path277-3-6-63-6-1"
       cx="64.401138"
       cy="289.45413"
       rx="5.9676137"
       ry="1.1935227" /><ellipse
       style="fill:#25223a;fill-opacity:1;stroke-width:0.133904"
       id="path277-3-6-7-2-3-2"
       cx="64.346085"
       cy="289.32889"
       rx="5.0828052"
       ry="1.016561" /><path
       style="fill:#3f4164;fill-opacity:1;stroke:#25223a;stroke-width:0.267299px;stroke-linecap:butt;stroke-linejoin:miter;stroke-opacity:1"
       d="m 59.805872,289.24096 0.526974,-1.9344 h 8.229289 l 0.487604,1.93199 z"
       id="path422-0-8-8" /><ellipse
       style="fill:#3f4164;fill-opacity:1;stroke-width:0.116557"
       id="path277-3-6-5-6-5-8"
       cx="64.434868"
       cy="289.12344"
       rx="4.4557481"
       ry="0.87862664" /><ellipse
       style="fill:#25223a;fill-opacity:1;stroke-width:0.126879"
       id="path277-3-6-3-1-6-9"
       cx="64.433075"
       cy="286.98709"
       rx="4.8161163"
       ry="0.9632231" /><ellipse
       style="fill:#3f4164;fill-opacity:1;stroke-width:0.103279"
       id="path277-3-6-3-6-5-1-2"
       cx="64.393173"
       cy="286.87741"
       rx="3.9202902"
       ry="0.78405792" /><ellipse
       style="fill:#25223a;fill-opacity:1;stroke-width:0.121158"
       id="path277-3-6-3-2-5-1-8"
       cx="64.411728"
       cy="286.27786"
       rx="4.5989275"
       ry="0.91978544" /><ellipse
       style="fill:#3f4164;fill-opacity:1;stroke-width:0.112579"
       id="path277-3-6-3-2-1-4-5-8"
       cx="64.474823"
       cy="286.00803"
       rx="4.6474714"
       ry="0.78584868" /><path
       style="fill:#3f4164;fill-opacity:1;stroke:#25223a;stroke-width:0.251346px;stroke-linecap:butt;stroke-linejoin:miter;stroke-opacity:1"
       d="m 60.041056,286.00678 c 0,0 0.425391,-1.69467 0.980867,-2.27899 0.555474,-0.58432 -0.03334,-1.36607 -0.03334,-1.36607 0,0 -1.231328,-0.50627 -1.951411,0.33237 -0.720084,0.83865 -1.881644,-0.0619 -1.881644,-0.0619 0,0 -0.261289,0.45646 -0.489588,0.42186 -0.228299,-0.0346 -0.496144,-0.2742 -0.368445,-0.44441 0.127702,-0.1702 0.347721,-0.28313 0.347721,-0.28313 0,0 0.101633,-0.1357 -0.113955,-0.21942 -0.215584,-0.0837 -0.311933,0.25143 -0.311933,0.25143 0,0 -0.06151,0.26804 -0.188829,0.17874 -0.127319,-0.0893 -0.429639,-0.15618 -0.383901,-0.25836 0.04573,-0.1022 0.08246,-0.25324 0.244738,-0.37129 0.162277,-0.11804 0.04647,-0.43933 0.04647,-0.43933 0,0 -0.37859,-0.11113 -0.451996,-0.90258 -0.0734,-0.79144 0.30231,-2.03259 0.30231,-2.03259 0,0 1.054689,-1.69823 2.533847,-1.96538 1.479161,-0.26715 3.886468,-1.9227 3.886468,-1.9227 0,0 0.387745,-0.19918 0.618827,-0.18667 0.231085,0.0125 0.443334,-0.0238 0.372154,-0.15678 -0.07118,-0.13298 -0.400699,-1.06586 -0.359491,-1.57781 0.04121,-0.51197 0.208551,-1.25623 0.400912,-1.26466 0.19236,-0.008 0.459757,-0.0405 0.691061,0.12971 0.231301,0.17015 1.456783,1.25487 1.617993,1.58375 0.161213,0.32887 0.276672,-0.83207 0.276672,-0.83207 0,0 0.369263,-1.33092 1.829327,-0.70926 1.460063,0.62166 2.624877,1.68465 2.624877,1.68465 0,0 0.613424,0.50262 1.325043,1.90453 0.711608,1.40193 0.525157,4.21597 0.525157,4.21597 0,0 -0.08777,1.11199 -0.555925,2.30986 -0.468115,1.19788 -1.112167,1.77247 -1.112167,1.77247 0,0 -0.811773,0.62468 -1.289337,0.49086 -0.477561,-0.13384 -0.281933,0.77659 -0.281933,0.77659 l -0.0015,1.11014 c 0,0 -2.319949,0.85887 -5.594779,0.5059 -3.274828,-0.35298 -3.254244,-0.39535 -3.254244,-0.39535 z"
       id="path6882-8-4-8" /><path
       style="fill:#3f4164;fill-opacity:1;stroke:#25223a;stroke-width:0.226477;stroke-dasharray:none;stroke-dashoffset:0;stroke-opacity:1"
       id="path9900-6"
       d="m 67.194062,272.48013 c 0.01683,-0.0537 -0.04171,0.065 -0.04211,0.0657 -0.05685,0.0934 -0.12232,0.18135 -0.188532,0.26829 -0.07951,0.10432 -0.167244,0.20189 -0.255472,0.29881 -0.06192,0.0669 -0.03092,0.0337 -0.093,0.0995 -0.284513,0.30195 0.142519,0.70432 0.427031,0.40235 v 0 c 0.0667,-0.0708 0.03341,-0.0352 0.09987,-0.1069 0.0998,-0.10972 0.198696,-0.22039 0.288536,-0.33851 0.08114,-0.10678 0.16102,-0.21496 0.229752,-0.33028 0.05049,-0.0885 0.09963,-0.17985 0.115574,-0.28184 0.05448,-0.41128 -0.527156,-0.48834 -0.581646,-0.0771 z" /><path
       style="fill:#3f4164;fill-opacity:1;stroke:#25223a;stroke-width:0.226477;stroke-dasharray:none;stroke-dashoffset:0;stroke-opacity:1"
       id="path9902-8"
       d="m 68.945302,273.04088 c -0.01406,0.0278 -0.03726,0.0613 -0.05852,0.0887 -0.05184,0.0658 -0.112781,0.12365 -0.174615,0.17989 -0.0815,0.0735 -0.168497,0.14051 -0.255309,0.20753 -0.09183,0.0702 -0.18495,0.13868 -0.279374,0.20533 -0.09128,0.0651 -0.185926,0.1253 -0.280586,0.18536 -0.04681,0.0294 -0.09369,0.0588 -0.140661,0.088 -0.352288,0.21913 -0.04238,0.71733 0.309898,0.49821 v 0 c 0.04844,-0.0302 0.0968,-0.0604 0.145085,-0.0908 0.102853,-0.0652 0.205567,-0.13081 0.304769,-0.20156 0.101187,-0.0715 0.201056,-0.14487 0.299457,-0.22017 0.09959,-0.0769 0.19913,-0.15411 0.292403,-0.2387 0.08856,-0.0812 0.175063,-0.16523 0.248193,-0.26091 0.04189,-0.0566 0.08179,-0.11453 0.11359,-0.17758 0.186251,-0.37073 -0.338037,-0.63412 -0.524282,-0.2634 z" /><path
       style="fill:#3f4164;fill-opacity:1;stroke:#25223a;stroke-width:0.226477;stroke-dasharray:none;stroke-dashoffset:0;stroke-opacity:1"
       id="path9910-3"
       d="m 70.020616,274.15479 c -0.02077,0.0309 -0.04389,0.06 -0.06712,0.089 -0.04283,0.0548 -0.09528,0.10092 -0.146834,0.14727 -0.07334,0.0641 -0.151552,0.12224 -0.229833,0.18005 -0.0859,0.0623 -0.173531,0.12209 -0.26086,0.18232 -0.08566,0.059 -0.171456,0.11773 -0.257691,0.17585 -0.06798,0.0456 -0.137001,0.0897 -0.205834,0.13401 -0.348802,0.22464 -0.03112,0.71792 0.317686,0.49328 v 0 c 0.07227,-0.0466 0.144724,-0.0928 0.216071,-0.14075 0.08801,-0.0593 0.175537,-0.11918 0.262866,-0.17939 0.09258,-0.0638 0.185535,-0.1273 0.276513,-0.19348 0.09341,-0.069 0.186427,-0.13882 0.273533,-0.21574 0.07533,-0.0678 0.15012,-0.13688 0.212665,-0.21706 0.02922,-0.0367 0.05856,-0.0737 0.08496,-0.11241 0.242483,-0.33664 -0.2336,-0.67956 -0.476083,-0.34292 z" /><path
       style="fill:#3f4164;fill-opacity:1;stroke:#25223a;stroke-width:0.226477;stroke-dasharray:none;stroke-dashoffset:0;stroke-opacity:1"
       id="path9914-8"
       d="m 70.914567,275.70087 c 0.0023,-0.001 0.0082,-0.006 0.0059,-0.005 -0.03708,0.0202 -0.0717,0.0487 -0.105963,0.0731 -0.06219,0.0451 -0.127602,0.0856 -0.19321,0.12541 -0.08414,0.0502 -0.170409,0.0969 -0.257608,0.14161 -0.09622,0.0481 -0.194712,0.0914 -0.293963,0.13285 -0.09939,0.041 -0.200203,0.0785 -0.30132,0.115 -0.07897,0.0285 -0.158569,0.055 -0.238294,0.0812 -0.394095,0.12965 -0.210741,0.68699 0.183364,0.55734 v 0 c 0.08508,-0.028 0.170069,-0.0563 0.254335,-0.0868 0.110071,-0.0398 0.219824,-0.0807 0.328052,-0.12544 0.113473,-0.0474 0.226066,-0.0971 0.33596,-0.15237 0.09974,-0.0513 0.198326,-0.10467 0.294491,-0.16227 0.07792,-0.0474 0.155436,-0.0958 0.229376,-0.1493 0.03509,-0.0251 0.07041,-0.0496 0.106432,-0.0735 0.334024,-0.24607 -0.01396,-0.71845 -0.348,-0.47237 z" /><path
       style="fill:#3f4164;fill-opacity:1;stroke:#25223a;stroke-width:0.226477;stroke-dasharray:none;stroke-dashoffset:0;stroke-opacity:1"
       id="path9922-3"
       d="m 71.379326,277.55101 c 0.0023,-9.3e-4 -0.01878,0.008 -0.01408,0.006 0.02511,-0.0117 -0.01479,0.002 -0.02007,0.004 -0.05398,0.0117 -0.108663,0.0201 -0.163158,0.029 -0.08555,0.0149 -0.171407,0.0282 -0.257398,0.0404 -0.0947,0.0133 -0.189372,0.0262 -0.284211,0.0383 -0.09845,0.0124 -0.197164,0.0229 -0.29591,0.0327 -0.09928,0.009 -0.198467,0.0191 -0.297882,0.0268 -0.07721,0.006 -0.154544,0.009 -0.231899,0.0122 -0.414605,0.015 -0.393413,0.60134 0.02124,0.58634 v 0 c 0.08531,-0.004 0.170503,-0.007 0.255591,-0.0136 0.103968,-0.008 0.207772,-0.0178 0.31154,-0.0279 0.103851,-0.0106 0.207667,-0.0215 0.311225,-0.0345 0.09775,-0.0124 0.19538,-0.0258 0.292976,-0.0394 0.08989,-0.0128 0.17968,-0.0265 0.269156,-0.0421 0.07275,-0.0119 0.145591,-0.0234 0.217266,-0.0405 0.0399,-0.0106 0.07991,-0.0212 0.117615,-0.0385 0.381092,-0.164 0.149158,-0.70294 -0.231922,-0.53895 z" /><path
       style="fill:#3f4164;fill-opacity:1;stroke:#25223a;stroke-width:0.226477;stroke-dasharray:none;stroke-dashoffset:0;stroke-opacity:1"
       id="path9944-3"
       d="m 69.855077,279.60057 c -0.0012,-2.9e-4 -0.0059,-10e-4 -0.0047,-9.3e-4 0.03403,0.0106 0.06912,0.0188 0.103851,0.0273 0.0609,0.0148 0.121253,0.0315 0.181123,0.0499 0.07498,0.0236 0.148888,0.0501 0.222874,0.0765 0.07874,0.0271 0.156727,0.0561 0.234398,0.0861 0.07264,0.0285 0.144218,0.0597 0.215834,0.0907 0.07182,0.0306 0.143244,0.0622 0.214789,0.0934 0.01185,0.005 0.02382,0.0106 0.03567,0.0155 0.380728,0.16483 0.613835,-0.3736 0.233107,-0.53844 v 0 c -0.01174,-0.005 -0.02253,-0.009 -0.03391,-0.0147 -0.07217,-0.0316 -0.144241,-0.0634 -0.216702,-0.0943 -0.07886,-0.0342 -0.157713,-0.0684 -0.237766,-0.0997 -0.08238,-0.0317 -0.165023,-0.0625 -0.248433,-0.0913 -0.08249,-0.0295 -0.16507,-0.059 -0.248761,-0.0851 -0.07041,-0.0213 -0.141213,-0.0412 -0.212712,-0.0585 -0.03814,-0.009 -0.07592,-0.02 -0.113825,-0.0298 -0.405324,-0.0885 -0.530508,0.4847 -0.125185,0.57322 z" /><path
       style="fill:#3f4164;fill-opacity:1;stroke:#25223a;stroke-width:0.226477;stroke-dasharray:none;stroke-dashoffset:0;stroke-opacity:1"
       id="path9946-3"
       d="m 69.273676,280.82716 c 0.04447,0.0431 0.09094,0.0838 0.138562,0.12327 0.06524,0.054 0.133081,0.10467 0.201635,0.1544 0.07052,0.0498 0.142539,0.0974 0.213299,0.14679 0.06923,0.0485 0.136543,0.0994 0.204052,0.15017 0.06959,0.0529 0.13936,0.10549 0.209087,0.15816 0.06982,0.0518 0.138186,0.10549 0.207549,0.15791 0.04694,0.0349 0.02347,0.0176 0.07029,0.0519 0.334787,0.24503 0.681332,-0.22842 0.346545,-0.47347 v 0 c -0.04213,-0.0309 -0.02101,-0.0152 -0.06325,-0.0467 -0.06935,-0.0523 -0.137588,-0.1062 -0.207444,-0.15781 -0.07017,-0.0529 -0.140322,-0.10585 -0.210248,-0.15904 -0.07311,-0.0549 -0.145978,-0.10995 -0.220868,-0.16236 -0.06806,-0.0474 -0.137001,-0.0934 -0.205003,-0.14089 -0.0582,-0.0421 -0.11582,-0.0852 -0.171278,-0.13087 -0.03579,-0.0296 -0.07088,-0.06 -0.104203,-0.0925 -0.297682,-0.289 -0.706369,0.13198 -0.408691,0.42098 z" /><path
       style="fill:#3f4164;fill-opacity:1;stroke:#25223a;stroke-width:0.226477;stroke-dasharray:none;stroke-dashoffset:0;stroke-opacity:1"
       id="path9948-8"
       d="m 68.468844,281.84407 c 0.02542,0.0517 0.0543,0.10173 0.08356,0.15134 0.05487,0.0879 0.113168,0.17354 0.172667,0.25831 0.07076,0.1 0.148684,0.1945 0.226642,0.28886 0.07711,0.0945 0.157379,0.18622 0.23861,0.27713 0.07717,0.0859 0.154404,0.17181 0.232063,0.25731 0.278942,0.30709 0.713262,-0.0874 0.434308,-0.3945 v 0 c -0.07663,-0.0844 -0.152772,-0.16902 -0.228883,-0.25378 -0.07616,-0.0853 -0.151528,-0.17127 -0.223801,-0.2599 -0.06818,-0.0825 -0.136649,-0.16502 -0.198784,-0.2523 -0.05068,-0.0722 -0.100213,-0.14512 -0.147604,-0.21946 -0.02067,-0.035 -0.04114,-0.0699 -0.05949,-0.1062 -0.179036,-0.37426 -0.70832,-0.12108 -0.529285,0.25319 z" /><path
       style="fill:#3f4164;fill-opacity:1;stroke:#25223a;stroke-width:0.274896;stroke-dasharray:none;stroke-dashoffset:0;stroke-opacity:1"
       id="path9954-0"
       d="m 63.494042,273.11577 c -0.01229,-0.002 -0.05144,-0.0404 -0.02118,-0.0106 0.01091,0.0131 0.02089,0.0267 0.03079,0.0405 0.02356,0.032 0.04323,0.0661 0.06246,0.10021 0.02652,0.0467 0.05032,0.0945 0.07219,0.14304 0.02553,0.0569 0.0488,0.11464 0.07101,0.17261 0.02264,0.0597 0.04406,0.11987 0.06492,0.18014 0.156417,0.45227 0.881921,0.25726 0.725503,-0.19502 v 0 c -0.02308,-0.0667 -0.04683,-0.13324 -0.07193,-0.19939 -0.0267,-0.0695 -0.05461,-0.1386 -0.08531,-0.2068 -0.02978,-0.0652 -0.06167,-0.12983 -0.09749,-0.19276 -0.03182,-0.0562 -0.06508,-0.11172 -0.103909,-0.16446 -0.03585,-0.0488 -0.07342,-0.0968 -0.118854,-0.13911 -0.03696,-0.0338 -0.0751,-0.067 -0.120235,-0.0925 -0.452136,-0.25433 -0.8601,0.30939 -0.407965,0.56371 z" /><ellipse
       style="fill:#3f4164;fill-opacity:1;stroke:#25223a;stroke-width:0.124729;stroke-dasharray:none;stroke-dashoffset:0;stroke-opacity:1"
       id="path10008-47"
       cx="214.03189"
       cy="155.62363"
       rx="0.53883469"
       ry="0.61581367"
       transform="matrix(0.6950185,0.71899186,-0.59250779,0.80556472,0,0)" /><ellipse
       style="fill:#1a1a1a;fill-opacity:1;stroke:#1a1a1a;stroke-width:0.226477;stroke-dasharray:none;stroke-dashoffset:0;stroke-opacity:1"
       id="path10012-6"
       cx="130.40433"
       cy="253.3196"
       rx="0.20635262"
       ry="0.33388555"
       transform="rotate(15.789771)" /><ellipse
       style="fill:#000000;stroke-width:0.408081"
       id="path2053-7-4-8-89"
       cx="60.361877"
       cy="277.65317"
       rx="0.50295174"
       ry="0.53364038" /><path
       style="fill:#000000;fill-opacity:1;stroke:#25223a;stroke-width:0.226477;stroke-dasharray:none;stroke-dashoffset:0;stroke-opacity:1"
       id="path10063-0"
       d="m 68.861268,283.99797 c -0.0054,-0.0157 -0.01044,-0.0316 -0.01483,-0.0475 -0.0059,-0.0225 -0.0108,-0.0454 -0.01597,-0.0681 -0.0079,-0.0326 -0.01642,-0.0651 -0.02589,-0.0973 -0.01198,-0.0415 -0.02476,-0.0828 -0.03805,-0.124 -0.01415,-0.0456 -0.02991,-0.0907 -0.04503,-0.13601 -0.01446,-0.0446 -0.02821,-0.0893 -0.04302,-0.13378 -0.01462,-0.0432 -0.02908,-0.0864 -0.04405,-0.12938 -0.01562,-0.0446 -0.02943,-0.0898 -0.04227,-0.13527 -0.01398,-0.0493 -0.02875,-0.0983 -0.04376,-0.14723 -0.01534,-0.0509 -0.03104,-0.10174 -0.04637,-0.15262 -0.01578,-0.0526 -0.03153,-0.10526 -0.04742,-0.15784 -0.01712,-0.0537 -0.03365,-0.10761 -0.04952,-0.1617 -0.01522,-0.0541 -0.0305,-0.1082 -0.04587,-0.16224 -0.01455,-0.0526 -0.02889,-0.10515 -0.04375,-0.15758 -0.01497,-0.0533 -0.03026,-0.10655 -0.04487,-0.15988 -0.0142,-0.0517 -0.02693,-0.10385 -0.03866,-0.15614 -0.01207,-0.0544 -0.02227,-0.10937 -0.03196,-0.16426 -0.01103,-0.0543 -0.01672,-0.10913 -0.01969,-0.16437 -0.0019,-0.0581 -0.0015,-0.11617 -4.34e-4,-0.17435 0.0018,-0.0607 0.0059,-0.12124 0.0108,-0.18172 0.0046,-0.0607 0.01261,-0.12101 0.02163,-0.18117 0.0092,-0.0616 0.01807,-0.12335 0.02854,-0.18482 0.0097,-0.0594 0.0212,-0.11851 0.03353,-0.17744 0.01115,-0.0575 0.02577,-0.11417 0.03917,-0.17109 0.01382,-0.057 0.02747,-0.11417 0.04233,-0.17093 0.01445,-0.0563 0.03097,-0.11219 0.04696,-0.16809 0.01628,-0.0581 0.03287,-0.11617 0.049,-0.17427 0.01702,-0.0621 0.03424,-0.124 0.05083,-0.18615 0.0159,-0.0639 0.03196,-0.1278 0.04844,-0.19159 0.01637,-0.0632 0.03172,-0.12686 0.04626,-0.19061 0.0147,-0.0651 0.02688,-0.1308 0.03862,-0.19651 0.0136,-0.0675 0.0199,-0.13602 0.02594,-0.2045 0.0056,-0.0676 0.01115,-0.13515 0.01506,-0.20283 0.0035,-0.0674 0.006,-0.13489 0.0084,-0.20235 0.0023,-0.0657 0.0045,-0.1315 0.0066,-0.19725 0.0019,-0.0642 0.0014,-0.12847 5.89e-4,-0.19271 -5.59e-4,-0.0623 -0.0026,-0.1245 -0.0059,-0.18668 -0.0036,-0.0612 -0.0074,-0.12249 -0.01103,-0.18375 -0.0032,-0.0624 -0.0073,-0.12474 -0.01254,-0.18698 -0.0054,-0.0614 -0.01127,-0.12278 -0.01861,-0.184 -0.0076,-0.0628 -0.01612,-0.12543 -0.02538,-0.18798 -0.009,-0.0648 -0.01987,-0.12935 -0.03177,-0.19371 -0.0115,-0.0646 -0.02472,-0.12895 -0.0392,-0.19299 -0.01443,-0.063 -0.03003,-0.12574 -0.04707,-0.18809 -0.01705,-0.0617 -0.03817,-0.12218 -0.05872,-0.18278 -0.01887,-0.0595 -0.04169,-0.11748 -0.06517,-0.17524 -0.02451,-0.0576 -0.05056,-0.11453 -0.07727,-0.17117 -0.02658,-0.0562 -0.05647,-0.11066 -0.08679,-0.16487 -0.02965,-0.0513 -0.06004,-0.10209 -0.09114,-0.15251 -0.03048,-0.0489 -0.06262,-0.0968 -0.09616,-0.14364 -0.03375,-0.0468 -0.06925,-0.0922 -0.106127,-0.13659 -0.03972,-0.0497 -0.08341,-0.096 -0.127933,-0.14144 -0.04606,-0.0472 -0.09306,-0.0934 -0.141279,-0.13838 -0.04551,-0.0427 -0.09169,-0.0846 -0.137739,-0.12664 -0.04713,-0.0412 -0.09575,-0.0806 -0.144039,-0.12052 -0.04896,-0.0401 -0.09873,-0.0792 -0.14937,-0.11723 -0.05159,-0.0393 -0.104848,-0.0764 -0.159462,-0.11136 -0.06265,-0.0417 -0.130642,-0.0738 -0.198243,-0.10643 -0.07708,-0.0373 -0.154179,-0.0747 -0.231755,-0.11101 -0.07808,-0.0372 -0.15629,-0.0742 -0.234541,-0.11101 -0.0784,-0.0373 -0.158316,-0.0712 -0.238536,-0.10444 -0.07455,-0.0316 -0.149506,-0.0622 -0.22495,-0.0915 -0.07072,-0.0277 -0.142437,-0.0527 -0.214416,-0.0769 -0.06867,-0.0229 -0.138068,-0.0434 -0.20762,-0.0634 -0.06516,-0.0187 -0.130547,-0.0364 -0.196703,-0.0512 -0.06284,-0.0143 -0.12684,-0.0219 -0.190963,-0.0275 -0.05973,-0.005 -0.119664,-0.004 -0.179476,-0.002 -0.05921,9.4e-4 -0.118109,0.007 -0.176787,0.0149 -0.05687,0.008 -0.113333,0.0186 -0.169784,0.0291 -0.05221,0.009 -0.104309,0.0199 -0.156374,0.0303 -0.05196,0.009 -0.103417,0.0211 -0.154596,0.034 -0.04906,0.0126 -0.09826,0.0247 -0.147672,0.0358 -0.04955,0.0106 -0.09939,0.0205 -0.149274,0.0298 -0.04957,0.009 -0.09937,0.0171 -0.149245,0.0246 -0.05168,0.008 -0.103358,0.0167 -0.155109,0.0244 -0.04947,0.007 -0.09904,0.0143 -0.148673,0.0208 -0.04903,0.006 -0.09813,0.0117 -0.14724,0.0171 -0.0487,0.005 -0.09731,0.0106 -0.145605,0.0182 -0.08185,0.0136 -0.06259,0.12937 0.01926,0.1157 v 0 c 0.04612,-0.008 0.0926,-0.0127 0.139101,-0.0174 0.04987,-0.006 0.09971,-0.0117 0.149481,-0.0174 0.05052,-0.007 0.100964,-0.0135 0.151327,-0.0211 0.0516,-0.008 0.103135,-0.0161 0.154674,-0.0244 0.05127,-0.008 0.102466,-0.0157 0.153417,-0.0252 0.05141,-0.009 0.102771,-0.0194 0.153835,-0.0306 0.05035,-0.0117 0.100507,-0.0236 0.150502,-0.0365 0.04926,-0.0124 0.09877,-0.0237 0.148787,-0.0327 0.05157,-0.0106 0.103182,-0.0204 0.1549,-0.03 0.05431,-0.0106 0.108615,-0.0202 0.163304,-0.0281 0.05479,-0.007 0.109789,-0.013 0.165078,-0.0141 0.05539,-10e-4 0.110892,-0.002 0.166212,0.001 0.05892,0.005 0.117735,0.012 0.175473,0.025 0.06384,0.0142 0.126886,0.0315 0.189766,0.0494 0.0679,0.0195 0.13563,0.0396 0.202668,0.0618 0.07022,0.0236 0.140192,0.0479 0.209185,0.0749 0.07469,0.0291 0.148887,0.0594 0.222688,0.0906 0.07849,0.0324 0.156685,0.0656 0.233384,0.10221 0.07832,0.0368 0.156597,0.0738 0.234749,0.11113 0.07719,0.0361 0.153879,0.0733 0.230579,0.11042 0.06337,0.0305 0.127236,0.0604 0.185934,0.0995 0.05219,0.0333 0.103006,0.0689 0.152294,0.10631 0.0492,0.037 0.09754,0.0749 0.145111,0.11394 0.04676,0.0386 0.09384,0.0769 0.139568,0.11665 0.04575,0.0418 0.09166,0.0834 0.136889,0.12586 0.04695,0.0438 0.09267,0.0887 0.137495,0.13468 0.04231,0.0432 0.08386,0.0871 0.12154,0.13437 0.0351,0.0421 0.06879,0.0854 0.100905,0.12984 0.032,0.0447 0.06262,0.0904 0.09171,0.13693 0.03023,0.0489 0.05975,0.0983 0.0886,0.14819 0.02901,0.0519 0.05763,0.10397 0.08307,0.15765 0.0258,0.0547 0.05096,0.10972 0.07469,0.16527 0.0226,0.0556 0.04463,0.11148 0.06274,0.16872 0.0198,0.0584 0.04018,0.11664 0.05667,0.17609 0.01661,0.0607 0.03174,0.12171 0.04581,0.18301 0.01416,0.0625 0.02707,0.12533 0.03827,0.18845 0.01162,0.063 0.02219,0.12613 0.03107,0.18957 0.0092,0.0615 0.01751,0.12304 0.02496,0.18473 0.0072,0.0598 0.01287,0.11993 0.0182,0.18002 0.0053,0.0611 0.0092,0.12249 0.01231,0.18383 0.0035,0.061 0.0074,0.12204 0.01091,0.18307 0.0032,0.0607 0.0052,0.12141 0.0056,0.18216 8.69e-4,0.0624 0.0013,0.12497 -5.28e-4,0.18744 -0.002,0.0655 -0.0041,0.13104 -0.0066,0.19656 -0.0025,0.0666 -0.0049,0.1333 -0.0083,0.19991 -0.0039,0.0665 -0.0093,0.1329 -0.0148,0.1993 -0.0058,0.065 -0.01162,0.1301 -0.02457,0.19417 -0.01138,0.0638 -0.02323,0.12772 -0.03751,0.19104 -0.01429,0.0627 -0.02938,0.12515 -0.04547,0.18738 -0.01639,0.0635 -0.03239,0.12703 -0.04819,0.19066 -0.0165,0.0617 -0.03362,0.12338 -0.05053,0.18503 -0.01605,0.0578 -0.03256,0.11559 -0.04876,0.17339 -0.01624,0.0568 -0.033,0.11347 -0.04766,0.17067 -0.01509,0.0577 -0.02899,0.1157 -0.04303,0.17374 -0.01362,0.0578 -0.02846,0.11558 -0.0398,0.17395 -0.01263,0.0603 -0.02431,0.12092 -0.03435,0.18178 -0.01056,0.0622 -0.0196,0.12468 -0.0289,0.18711 -0.0094,0.0628 -0.01778,0.12567 -0.02253,0.18897 -0.0052,0.0629 -0.0095,0.12595 -0.01115,0.18909 -0.0011,0.061 -0.0014,0.12198 5.9e-4,0.18295 0.0033,0.0598 0.0095,0.11949 0.02131,0.17838 0.01,0.0567 0.02055,0.11336 0.03303,0.16955 0.01215,0.0541 0.02529,0.10795 0.03998,0.16142 0.0147,0.0537 0.03009,0.10725 0.04517,0.16092 0.01488,0.0525 0.02921,0.10515 0.04377,0.15766 0.01545,0.0543 0.03083,0.10878 0.04614,0.16317 0.01596,0.0544 0.03256,0.10866 0.04979,0.16263 0.01588,0.0526 0.03161,0.10514 0.04738,0.15773 0.0154,0.051 0.03114,0.10209 0.04654,0.15317 0.01476,0.0481 0.02929,0.0963 0.04303,0.14477 0.0135,0.0477 0.02797,0.0952 0.04437,0.14192 0.01481,0.0425 0.02908,0.0853 0.04355,0.12791 0.01482,0.0445 0.02853,0.0892 0.04302,0.1338 0.015,0.0449 0.03064,0.0898 0.0447,0.13501 0.013,0.0401 0.02545,0.0805 0.03715,0.12103 0.0088,0.0298 0.0167,0.0598 0.02401,0.0901 0.0055,0.0244 0.0108,0.0489 0.01723,0.0731 0.0052,0.0187 0.01091,0.0371 0.01724,0.0553 0.02739,0.0783 0.138156,0.0396 0.110774,-0.0387 z" /><path
       style="fill:#000000;fill-opacity:1;stroke:#25223a;stroke-width:0.226477;stroke-dasharray:none;stroke-dashoffset:0;stroke-opacity:1"
       id="path10083-6"
       d="m 56.828522,281.53777 c -0.004,0.009 -0.0081,0.0187 -0.012,0.0281 -0.0062,0.0161 -0.01197,0.0324 -0.01778,0.0487 -0.0069,0.0196 -0.01356,0.0394 -0.02007,0.0591 -0.0069,0.0217 -0.01387,0.0433 -0.02063,0.065 -0.0068,0.0222 -0.0138,0.0445 -0.02058,0.0667 -0.0066,0.0216 -0.01333,0.0431 -0.01983,0.0645 -0.0062,0.0204 -0.01252,0.0408 -0.01866,0.0614 -0.0062,0.0206 -0.01173,0.0415 -0.01699,0.0624 -0.0048,0.019 -0.0093,0.0383 -0.01381,0.0573 -0.0028,0.0106 -0.0055,0.0218 -0.0084,0.0326 -0.02184,0.08 0.09138,0.1109 0.113204,0.0309 v 0 c 0.0033,-0.012 0.0063,-0.0241 0.0093,-0.036 0.0045,-0.0187 0.0088,-0.0373 0.01348,-0.056 0.0049,-0.0192 0.0099,-0.0385 0.01564,-0.0576 0.0061,-0.0204 0.01239,-0.0407 0.0186,-0.0611 0.0065,-0.0215 0.01319,-0.0428 0.01973,-0.0642 0.0067,-0.0221 0.01359,-0.044 0.02038,-0.0661 0.0066,-0.0211 0.01333,-0.0422 0.02008,-0.0634 0.0062,-0.0188 0.01247,-0.0375 0.01907,-0.0563 0.0052,-0.0145 0.01033,-0.0292 0.01588,-0.0437 0.0032,-0.008 0.0067,-0.0155 0.01,-0.0233 0.03479,-0.0753 -0.07174,-0.12452 -0.106538,-0.0492 z" /><path
       style="fill:#000000;fill-opacity:1;stroke:#25223a;stroke-width:0.226477;stroke-dasharray:none;stroke-dashoffset:0;stroke-opacity:1"
       id="path10085-8"
       d="m 56.870641,281.46354 c -0.0042,0.0106 -0.009,0.021 -0.01415,0.0312 -0.0086,0.0172 -0.01849,0.0337 -0.02858,0.0501 -0.0136,0.0212 -0.02779,0.0421 -0.04203,0.063 -0.01502,0.022 -0.03046,0.0435 -0.04617,0.065 -0.01535,0.0205 -0.03067,0.041 -0.04649,0.0611 -0.01461,0.0188 -0.02987,0.037 -0.04503,0.0553 -0.01427,0.0171 -0.02852,0.0344 -0.04293,0.0514 -0.01387,0.0163 -0.02775,0.0326 -0.04178,0.0488 -0.01409,0.016 -0.02808,0.0319 -0.04189,0.048 -0.0094,0.0106 -0.0047,0.006 -0.01418,0.0168 -0.05318,0.0637 0.0369,0.1389 0.09009,0.0752 v 0 c 0.0087,-0.0106 0.0042,-0.005 0.01322,-0.0157 0.01367,-0.016 0.02753,-0.0318 0.04147,-0.0475 0.01434,-0.0165 0.02854,-0.0332 0.04273,-0.0499 0.01463,-0.0174 0.0291,-0.0349 0.0436,-0.0522 0.01582,-0.019 0.03172,-0.0381 0.04696,-0.0576 0.01659,-0.0211 0.03274,-0.0426 0.04883,-0.0642 0.01649,-0.0225 0.03269,-0.0452 0.04844,-0.0682 0.01529,-0.0223 0.03052,-0.0447 0.04505,-0.0676 0.01192,-0.0194 0.0236,-0.0388 0.0337,-0.0593 0.0059,-0.0118 0.01162,-0.0237 0.01644,-0.0361 0.0336,-0.0759 -0.0737,-0.12338 -0.107301,-0.0475 z" /><path
       style="fill:#000000;fill-opacity:1;stroke:#25223a;stroke-width:0.226477;stroke-dasharray:none;stroke-dashoffset:0;stroke-opacity:1"
       id="path10093-7"
       d="m 56.838608,281.45883 c -0.0072,0.0162 -0.01562,0.0317 -0.02362,0.0475 -0.01836,0.0352 -0.03783,0.0699 -0.05702,0.10467 -0.01962,0.0358 -0.03943,0.0715 -0.06105,0.10608 -0.01856,0.0297 -0.03892,0.0582 -0.06048,0.0857 -0.01815,0.0231 -0.03872,0.044 -0.06009,0.0641 -0.02327,0.0217 -0.0473,0.0426 -0.07104,0.0637 -0.01813,0.0161 -0.03566,0.0329 -0.05313,0.0496 -0.0598,0.0575 0.02157,0.14209 0.08136,0.0846 v 0 c 0.0164,-0.0157 0.03285,-0.0316 0.04987,-0.0466 0.02452,-0.0218 0.04933,-0.0434 0.07335,-0.0658 0.02569,-0.0242 0.05035,-0.0495 0.07217,-0.0772 0.02406,-0.0309 0.04683,-0.0627 0.06756,-0.0959 0.02269,-0.0364 0.04369,-0.0738 0.06428,-0.11148 0.01982,-0.0359 0.03993,-0.0718 0.05886,-0.10819 0.009,-0.0178 0.01853,-0.0354 0.02657,-0.0537 0.03316,-0.076 -0.0744,-0.12297 -0.107559,-0.0469 z" /><path
       style="fill:#000000;fill-opacity:1;stroke:#25223a;stroke-width:0.226477;stroke-dasharray:none;stroke-dashoffset:0;stroke-opacity:1"
       id="path10103-9"
       d="m 56.700419,281.82237 c -0.0029,0.0106 -0.0061,0.021 -0.0095,0.0315 -0.0059,0.0197 -0.01301,0.039 -0.02016,0.0582 -0.0092,0.0246 -0.01795,0.0495 -0.02694,0.0743 -0.0089,0.0249 -0.01733,0.05 -0.026,0.075 -0.0055,0.0156 -0.0108,0.0313 -0.01603,0.0471 -0.02634,0.0786 0.08492,0.11594 0.111278,0.0372 v 0 c 0.0052,-0.0153 0.01033,-0.0306 0.01561,-0.0458 0.0084,-0.0244 0.01673,-0.0491 0.02544,-0.0733 0.0089,-0.0245 0.01758,-0.0491 0.02667,-0.0735 0.0077,-0.0209 0.01545,-0.0419 0.02189,-0.0632 0.0033,-0.0106 0.0066,-0.0207 0.0094,-0.0311 0.02554,-0.079 -0.08612,-0.11512 -0.111654,-0.0361 z" /><path
       style="fill:#25223a;fill-opacity:1;stroke:#25223a;stroke-width:0.226477;stroke-dasharray:none;stroke-dashoffset:0;stroke-opacity:1"
       id="path10117-0"
       d="m 56.945874,281.54807 c 0.0021,-0.0171 -0.0077,0.0251 -0.0079,0.0254 -0.0062,0.0222 -0.0136,0.0441 -0.0215,0.0658 -0.01068,0.0289 -0.02332,0.057 -0.03626,0.085 -0.01522,0.0329 -0.03199,0.0649 -0.04928,0.0967 -0.0194,0.0359 -0.03998,0.0711 -0.06129,0.10585 -0.01909,0.0311 -0.0391,0.0617 -0.05917,0.0922 -0.04558,0.0693 0.05249,0.13379 0.09807,0.0644 v 0 c 0.02075,-0.0316 0.04142,-0.0632 0.06116,-0.0954 0.02237,-0.0365 0.04397,-0.0735 0.06434,-0.11112 0.01847,-0.034 0.0364,-0.0683 0.05266,-0.1035 0.01432,-0.031 0.02826,-0.0621 0.04006,-0.0941 0.009,-0.0248 0.0174,-0.0499 0.0245,-0.0753 0.0049,-0.0184 0.01068,-0.0369 0.01189,-0.056 0,-0.083 -0.117346,-0.083 -0.117346,0 z" /></g></svg>
