<?xml version="1.0" encoding="UTF-8" standalone="no"?>
<svg
   width="45"
   height="45"
   version="1.1"
   id="svg38472"
   sodipodi:docname="bB.svg"
   xml:space="preserve"
   inkscape:export-filename="../chesspark/wP.svg"
   inkscape:export-xdpi="96"
   inkscape:export-ydpi="96"
   xmlns:inkscape="http://www.inkscape.org/namespaces/inkscape"
   xmlns:sodipodi="http://sodipodi.sourceforge.net/DTD/sodipodi-0.dtd"
   xmlns="http://www.w3.org/2000/svg"
   xmlns:svg="http://www.w3.org/2000/svg"><defs
     id="defs38476" /><sodipodi:namedview
     id="namedview38474"
     pagecolor="#ffffff"
     bordercolor="#999999"
     borderopacity="1"
     inkscape:showpageshadow="0"
     inkscape:pageopacity="0"
     inkscape:pagecheckerboard="0"
     inkscape:deskcolor="#d1d1d1"
     showgrid="false" /><g
     id="g22778"
     transform="matrix(1.7026772,0,0,1.7026772,-151.89787,-453.13297)"><ellipse
       style="fill:#3f4164;fill-opacity:1;stroke-width:0.209291"
       id="path277-7-0-1"
       cx="102.42568"
       cy="289.6449"
       rx="7.3850436"
       ry="1.7092129" /><ellipse
       style="fill:#3f4164;fill-opacity:1;stroke-width:0.193229"
       id="path277-2"
       cx="102.42449"
       cy="289.24927"
       rx="7.3347349"
       ry="1.4669471" /><ellipse
       style="fill:#3f4164;fill-opacity:1;stroke-width:0.193229"
       id="path277-7-07"
       cx="102.42227"
       cy="289.97876"
       rx="7.3347349"
       ry="1.4669471" /><ellipse
       style="fill:#25223a;fill-opacity:1;stroke-width:0.170792"
       id="path277-3-3"
       cx="102.36463"
       cy="288.53644"
       rx="6.4830017"
       ry="1.2966002" /><ellipse
       style="fill:#3f4164;fill-opacity:1;stroke-width:0.178074"
       id="path277-3-6-1"
       cx="102.40266"
       cy="287.76065"
       rx="6.7594509"
       ry="1.3518901" /><ellipse
       style="fill:#25223a;fill-opacity:1;stroke-width:0.151672"
       id="path277-3-6-7-19"
       cx="102.34029"
       cy="287.6188"
       rx="5.7572374"
       ry="1.1514475" /><path
       id="path285-0"
       style="fill:#3f4164;fill-opacity:1;stroke-width:0.244857"
       d="m 102.48646,272.44479 a 7.1183597,6.2723782 0 0 0 -7.118255,6.27228 7.1183597,6.2723782 0 0 0 1.217618,3.50741 c 3.941357,-0.005 7.883647,0.0214 11.824697,-0.0342 a 7.1183597,6.2723782 0 0 0 1.19418,-3.47329 7.1183597,6.2723782 0 0 0 -7.11824,-6.27227 z" /><path
       id="path285-9-5"
       style="fill:#3f4164;fill-opacity:1;stroke-width:0.244857"
       d="m 102.48674,285.3081 a 7.1183597,6.2723782 0 0 0 7.11825,-6.27228 7.1183597,6.2723782 0 0 0 -1.21763,-3.50741 c -3.94136,0.005 -7.88365,-0.0214 -11.824691,0.0342 a 7.1183597,6.2723782 0 0 0 -1.194185,3.47329 7.1183597,6.2723782 0 0 0 7.118256,6.27227 z" /><path
       style="fill:#3f4164;fill-opacity:1;stroke:#25223a;stroke-width:0.351673px;stroke-linecap:butt;stroke-linejoin:miter;stroke-opacity:1"
       d="m 97.174695,287.56575 0.600169,-2.93994 h 9.372346 l 0.55534,2.93629 z"
       id="path422-6" /><ellipse
       style="fill:#3f4164;fill-opacity:1;stroke-width:0.132023"
       id="path277-3-6-5-7"
       cx="102.44087"
       cy="287.38611"
       rx="5.046977"
       ry="0.99521077" /><ellipse
       style="fill:#25223a;fill-opacity:1;stroke-width:0.145194"
       id="path277-3-6-3-7"
       cx="102.44467"
       cy="284.2395"
       rx="5.5112939"
       ry="1.1022587" /><ellipse
       style="fill:#3f4164;fill-opacity:1;stroke-width:0.118187"
       id="path277-3-6-3-6-4"
       cx="102.399"
       cy="284.11395"
       rx="4.4861608"
       ry="0.897232" /><ellipse
       style="fill:#25223a;fill-opacity:1;stroke-width:0.138646"
       id="path277-3-6-3-2-0"
       cx="102.42022"
       cy="283.42786"
       rx="5.2627554"
       ry="1.0525509" /><ellipse
       style="fill:#3f4164;fill-opacity:1;stroke-width:0.128829"
       id="path277-3-6-3-2-1-6"
       cx="102.49245"
       cy="283.11908"
       rx="5.3183064"
       ry="0.8992812" /><ellipse
       style="fill:#000000;stroke-width:0.462229"
       id="path2053-4"
       cx="101.39935"
       cy="286.61816"
       rx="0.5696879"
       ry="0.60444862" /><ellipse
       style="fill:#000000;stroke-width:0.462229"
       id="path2053-3-7"
       cx="103.508"
       cy="286.62088"
       rx="0.5696879"
       ry="0.60444862" /></g></svg>
