<?xml version="1.0" encoding="UTF-8" standalone="no"?>
<svg
   width="45"
   height="45"
   version="1.1"
   id="svg38472"
   xml:space="preserve"
   xmlns="http://www.w3.org/2000/svg"
   xmlns:svg="http://www.w3.org/2000/svg"><defs
     id="defs38476" /><g
     id="g22601"
     transform="matrix(1.7026772,0,0,1.7026772,-7.8258648,-456.09364)"><path
       style="fill:#3f4164;fill-opacity:1;stroke:#25223a;stroke-width:0.433311px;stroke-linecap:butt;stroke-linejoin:miter;stroke-opacity:1"
       d="m 11.681645,281.69235 0.700547,3.82381 h 10.939825 l 0.648218,-3.81905 z"
       id="path422-0-1-3-1-8-7" /><g
       id="g12010-2-5-7"
       transform="matrix(0.89333525,0,0,0.89333525,-95.411017,188.49494)"
       style="fill:#3f4164;fill-opacity:1;stroke:#25223a;stroke-opacity:1"><path
         style="fill:#3f4164;fill-opacity:1;stroke:#25223a;stroke-width:0.264583px;stroke-linecap:butt;stroke-linejoin:miter;stroke-opacity:1"
         d="m 118.16435,105.29951 17.34981,-0.0435 c 0,0 0.57125,-0.3704 0.45836,-0.74349 -0.11288,-0.3731 -0.39962,-0.50041 -0.39962,-0.50041 0,0 2.30575,-3.8918 2.40635,-6.507286 0.1006,-2.615491 -0.29214,-2.842551 -0.29214,-2.842551 0,0 -0.27119,-0.591809 -0.81671,0.296257 -0.54552,0.888066 -1.88516,2.019718 -1.88516,2.019718 0,0 -0.72266,0.542866 -1.02113,0.0854 -0.29847,-0.45746 -1.15552,-2.437572 -1.15552,-2.437572 0,0 -0.21694,-0.597101 -0.64206,0.04659 -0.42513,0.643689 -2.03018,2.664669 -2.03018,2.664669 0,0 -0.83067,0.429668 -1.25619,0.07411 -0.42552,-0.35556 -1.94048,-3.10306 -1.94048,-3.10306 0,0 -0.17045,-0.358129 -0.35105,-0.03518 -0.18061,0.322953 -1.68302,2.921294 -1.68302,2.921294 0,0 -0.78653,0.753274 -1.51045,0.173685 -0.72392,-0.579585 -2.04774,-2.801829 -2.04774,-2.801829 0,0 -0.49073,-0.792662 -0.79077,0.350332 -0.30004,1.142998 -0.87002,2.366997 -0.87002,2.366997 0,0 -0.59456,0.701421 -1.15698,0.03533 -0.56241,-0.666091 -1.57738,-2.649913 -1.57738,-2.649913 0,0 -0.73177,-1.354918 -1.26693,0.229735 -0.53516,1.584653 0.1779,4.175394 0.1779,4.175394 0,0 0.36793,1.57724 0.88751,2.73951 0.51958,1.16226 1.3054,2.1015 1.3054,2.1015 0,0 -0.64738,0.53167 -0.37381,0.95418 0.27357,0.42252 0.48201,0.43006 0.48201,0.43006 z"
         id="path11045-9-6-5" /><path
         style="fill:#3f4164;fill-opacity:1;stroke:#25223a;stroke-width:0.264583px;stroke-linecap:butt;stroke-linejoin:miter;stroke-opacity:1"
         d="m 118.10012,103.93325 17.52934,-0.005"
         id="path11047-3-1-4" /><path
         style="fill:#3f4164;fill-opacity:1;stroke:#25223a;stroke-width:0.264583px;stroke-linecap:butt;stroke-linejoin:miter;stroke-opacity:1"
         d="m 121.97254,103.7488 c 0,0 -1.66849,-3.38259 -1.39163,-6.565832 0.27687,-3.183244 0.48435,-2.753125 0.48435,-2.753125"
         id="path11049-9-1-8" /><path
         style="fill:#3f4164;fill-opacity:1;stroke:#25223a;stroke-width:0.264583px;stroke-linecap:butt;stroke-linejoin:miter;stroke-opacity:1"
         d="m 131.47996,103.80335 c 0,0 1.66849,-3.38259 1.39163,-6.565831 -0.27687,-3.183244 -0.48435,-2.753125 -0.48435,-2.753125"
         id="path11049-2-0-5-1" /><path
         style="fill:#3f4164;fill-opacity:1;stroke:#25223a;stroke-width:0.264583px;stroke-linecap:butt;stroke-linejoin:miter;stroke-opacity:1"
         d="m 126.07803,95.385389 c 0,0 -0.25382,1.585224 -0.002,8.435511"
         id="path11107-8-9-2" /><path
         style="fill:#3f4164;fill-opacity:1;stroke:#25223a;stroke-width:0.264583px;stroke-linecap:butt;stroke-linejoin:miter;stroke-opacity:1"
         d="m 127.42965,95.404234 c 0,0 0.25382,1.585224 0.002,8.435516"
         id="path11107-6-8-8-8" /><path
         style="fill:#3f4164;fill-opacity:1;stroke:#25223a;stroke-width:0.264583px;stroke-linecap:butt;stroke-linejoin:miter;stroke-opacity:1"
         d="m 133.71582,96.72217 c 0,0 0.29641,2.561002 -0.34783,4.43032 -0.64423,1.86931 -1.11319,2.70039 -1.11319,2.70039"
         id="path11140-5-4-9" /><path
         style="fill:#3f4164;fill-opacity:1;stroke:#25223a;stroke-width:0.252949px;stroke-linecap:butt;stroke-linejoin:miter;stroke-opacity:1"
         d="m 119.79108,97.167151 c 0,0 -0.28338,2.448391 0.33253,4.235539 0.6159,1.78711 1.06424,2.58165 1.06424,2.58165"
         id="path11140-1-0-8-3" /></g><ellipse
       style="fill:#3f4164;fill-opacity:1;stroke-width:0.196438"
       id="path277-7-0-0-0-1-6"
       cx="17.785677"
       cy="291.11243"
       rx="7.3413267"
       ry="1.5146903" /><ellipse
       style="fill:#3f4164;fill-opacity:1;stroke-width:0.181362"
       id="path277-36-61-0-8"
       cx="17.784502"
       cy="290.76184"
       rx="7.291316"
       ry="1.2999963" /><ellipse
       style="fill:#3f4164;fill-opacity:1;stroke-width:0.181362"
       id="path277-7-1-5-3-0"
       cx="17.782305"
       cy="291.40829"
       rx="7.291316"
       ry="1.2999963" /><ellipse
       style="fill:#25223a;fill-opacity:1;stroke-width:0.160303"
       id="path277-3-0-94-0-2"
       cx="17.724993"
       cy="290.1301"
       rx="6.4446244"
       ry="1.1490364" /><ellipse
       style="fill:#3f4164;fill-opacity:1;stroke-width:0.167138"
       id="path277-3-6-63-9-4-1"
       cx="17.762804"
       cy="289.44263"
       rx="6.7194371"
       ry="1.1980338" /><ellipse
       style="fill:#25223a;fill-opacity:1;stroke-width:0.142358"
       id="path277-3-6-7-2-0-4-0"
       cx="17.700808"
       cy="289.31693"
       rx="5.7231565"
       ry="1.0204033" /><path
       style="fill:#3f4164;fill-opacity:1;stroke:#25223a;stroke-width:0.330077px;stroke-linecap:butt;stroke-linejoin:miter;stroke-opacity:1"
       d="m 12.565781,289.26993 0.596618,-2.60536 h 9.316874 l 0.552045,2.60212 z"
       id="path422-0-9-4-5" /><ellipse
       style="fill:#3f4164;fill-opacity:1;stroke-width:0.123915"
       id="path277-3-6-5-6-1-4-1"
       cx="17.800783"
       cy="289.11072"
       rx="5.0171003"
       ry="0.88194752" /><ellipse
       style="fill:#25223a;fill-opacity:1;stroke-width:0.136277"
       id="path277-3-6-3-1-7-7-1"
       cx="17.804552"
       cy="286.3222"
       rx="5.4786692"
       ry="0.97681242" /><ellipse
       style="fill:#3f4164;fill-opacity:1;stroke-width:0.110928"
       id="path277-3-6-3-6-5-7-6-0"
       cx="17.759157"
       cy="286.21097"
       rx="4.4596043"
       ry="0.79511952" /><ellipse
       style="fill:#25223a;fill-opacity:1;stroke-width:0.130132"
       id="path277-3-6-3-2-5-11-3-85"
       cx="17.780268"
       cy="285.60294"
       rx="5.2316017"
       ry="0.93276191" /><ellipse
       style="fill:#3f4164;fill-opacity:1;stroke-width:0.120917"
       id="path277-3-6-3-2-1-4-59-1-0"
       cx="17.852037"
       cy="285.32928"
       rx="5.2868237"
       ry="0.7969355" /><ellipse
       style="fill:#000000;stroke-width:0.34776"
       id="path2053-7-4-7-64"
       cx="15.363818"
       cy="283.70697"
       rx="0.42860705"
       ry="0.45475942" /><ellipse
       style="fill:#000000;stroke-width:0.34776"
       id="path2053-7-4-5-6"
       cx="20.129477"
       cy="283.70547"
       rx="0.42860705"
       ry="0.45475942" /></g></svg>
