<?xml version="1.0" encoding="UTF-8" standalone="no"?>
<svg
   width="45"
   height="45"
   version="1.1"
   id="svg38472"
   sodipodi:docname="bB.svg"
   xml:space="preserve"
   inkscape:export-filename="../chesspark/wR.svg"
   inkscape:export-xdpi="96"
   inkscape:export-ydpi="96"
   xmlns:inkscape="http://www.inkscape.org/namespaces/inkscape"
   xmlns:sodipodi="http://sodipodi.sourceforge.net/DTD/sodipodi-0.dtd"
   xmlns="http://www.w3.org/2000/svg"
   xmlns:svg="http://www.w3.org/2000/svg"><defs
     id="defs38476" /><sodipodi:namedview
     id="namedview38474"
     pagecolor="#ffffff"
     bordercolor="#999999"
     borderopacity="1"
     inkscape:showpageshadow="0"
     inkscape:pageopacity="0"
     inkscape:pagecheckerboard="0"
     inkscape:deskcolor="#d1d1d1"
     showgrid="false" /><g
     id="g22760"
     transform="matrix(1.7026772,0,0,1.7026772,-143.17112,-413.06348)"><path
       style="fill:#3f4164;fill-opacity:1;stroke:#25223a;stroke-width:0.44933;stroke-linecap:butt;stroke-linejoin:miter;stroke-dasharray:none;stroke-opacity:1"
       d="M 91.259279,259.21475 V 249.10636 H 93.7678 v 1.55509 h 2.489245 v -1.74839 h 2.17399 v 1.76994 h 2.397175 v -1.49724 h 2.46751 v 10.25522 z"
       id="path4851-9" /><ellipse
       style="fill:#3f4164;fill-opacity:1;stroke-width:0.204485"
       id="path277-7-0-0-5-2"
       cx="97.300369"
       cy="266.15298"
       rx="7.2154675"
       ry="1.6699657" /><ellipse
       style="fill:#3f4164;fill-opacity:1;stroke-width:0.188793"
       id="path277-36-6-8"
       cx="97.299202"
       cy="265.76648"
       rx="7.1663136"
       ry="1.4332628" /><ellipse
       style="fill:#3f4164;fill-opacity:1;stroke-width:0.188793"
       id="path277-7-1-9-3"
       cx="97.29705"
       cy="266.47922"
       rx="7.1663136"
       ry="1.4332628" /><ellipse
       style="fill:#25223a;fill-opacity:1;stroke-width:0.16687"
       id="path277-3-0-3-0"
       cx="97.24073"
       cy="265.07001"
       rx="6.3341379"
       ry="1.2668276" /><ellipse
       style="fill:#3f4164;fill-opacity:1;stroke-width:0.173985"
       id="path277-3-6-63-7-1"
       cx="97.277893"
       cy="264.31204"
       rx="6.6042395"
       ry="1.3208477" /><ellipse
       style="fill:#25223a;fill-opacity:1;stroke-width:0.148189"
       id="path277-3-6-7-2-4-78"
       cx="97.216965"
       cy="264.17346"
       rx="5.6250391"
       ry="1.1250079" /><path
       style="fill:#3f4164;fill-opacity:1;stroke:#25223a;stroke-width:0.343598px;stroke-linecap:butt;stroke-linejoin:miter;stroke-opacity:1"
       d="m 92.169968,264.12161 0.58639,-2.87244 h 9.157142 l 0.54258,2.86887 z"
       id="path422-0-5-9" /><ellipse
       style="fill:#3f4164;fill-opacity:1;stroke-width:0.128992"
       id="path277-3-6-5-6-2-1"
       cx="97.315216"
       cy="263.94608"
       rx="4.9310875"
       ry="0.97235858" /><ellipse
       style="fill:#25223a;fill-opacity:1;stroke-width:0.14186"
       id="path277-3-6-3-1-5-54"
       cx="97.318924"
       cy="260.87173"
       rx="5.3847427"
       ry="1.0769484" /><ellipse
       style="fill:#3f4164;fill-opacity:1;stroke-width:0.115473"
       id="path277-3-6-3-6-5-4-9"
       cx="97.274292"
       cy="260.74905"
       rx="4.3831487"
       ry="0.87662965" /><ellipse
       style="fill:#25223a;fill-opacity:1;stroke-width:0.135463"
       id="path277-3-6-3-2-5-7-2"
       cx="97.295052"
       cy="260.07874"
       rx="5.141911"
       ry="1.0283821" /><ellipse
       style="fill:#3f4164;fill-opacity:1;stroke-width:0.125871"
       id="path277-3-6-3-2-1-4-4-5"
       cx="97.365593"
       cy="259.77704"
       rx="5.1961865"
       ry="0.87863177" /><ellipse
       style="fill:#3f4164;fill-opacity:1;stroke-width:0.147878"
       id="path277-3-6-3-2-1-4-4-0-8-7"
       cx="97.258919"
       cy="259.28586"
       rx="6.1046252"
       ry="1.0322412" /><ellipse
       style="fill:#3f4164;fill-opacity:1;stroke-width:0.15235"
       id="path277-3-6-3-2-1-4-4-0-4"
       cx="97.273483"
       cy="259.56833"
       rx="6.2892675"
       ry="1.0634627" /><ellipse
       style="fill:#000000;stroke-width:0.451615"
       id="path2053-7-4-9"
       cx="96.2976"
       cy="263.19577"
       rx="0.55660665"
       ry="0.5905692" /><ellipse
       style="fill:#000000;stroke-width:0.451615"
       id="path2053-3-6-3-94"
       cx="98.357819"
       cy="263.19846"
       rx="0.55660665"
       ry="0.5905692" /><path
       style="fill:none;stroke:#25223a;stroke-width:0.422045px;stroke-linecap:butt;stroke-linejoin:miter;stroke-opacity:1"
       d="m 91.11355,259.08593 c 7.467089,1.35524 12.21817,-0.0579 12.21817,-0.0579"
       id="path5256-5" /><path
       style="fill:none;stroke:#25223a;stroke-width:0.289002px;stroke-linecap:butt;stroke-linejoin:miter;stroke-opacity:1"
       d="m 96.348405,256.39281 c 0,-2.03432 0.05065,-2.69651 0.05065,-2.69651 0,0 0.0161,-0.72042 0.799794,-0.72408 0.783704,-0.004 1.048406,0.1689 1.057029,0.72621 0.0091,0.55731 0,2.70598 0,2.70598 z"
       id="path5287-93" /><path
       style="fill:#000000;fill-opacity:1;stroke:#3f4164;stroke-width:0.250638;stroke-linecap:butt;stroke-linejoin:miter;stroke-dasharray:none;stroke-opacity:1"
       d="m 96.471074,256.23343 c 0,-1.76528 0.04389,-2.3399 0.04389,-2.3399 0,0 0.0139,-0.62514 0.694032,-0.62831 0.680059,-0.003 0.90975,0.14655 0.91723,0.63016 0.0078,0.48362 0,2.34811 0,2.34811 z"
       id="path5287-8-5" /></g></svg>
