<?xml version="1.0" encoding="UTF-8" standalone="no"?>
<svg
   width="45"
   height="45"
   version="1.1"
   id="svg38472"
   xml:space="preserve"
   xmlns="http://www.w3.org/2000/svg"
   xmlns:svg="http://www.w3.org/2000/svg"><defs
     id="defs38476" /><g
     id="g22715"
     transform="matrix(1.7026772,0,0,1.7026772,-119.84267,-455.80263)"><ellipse
       style="fill:#f1f1de;fill-opacity:1;stroke-width:0.184774"
       id="path277-7-0-0-8-1-3"
       cx="84.206223"
       cy="290.94751"
       rx="6.5199213"
       ry="1.5089868" /><ellipse
       style="fill:#f1f1de;fill-opacity:1;stroke-width:0.170594"
       id="path277-36-5-0-3"
       cx="84.20517"
       cy="290.5983"
       rx="6.4755063"
       ry="1.2951013" /><ellipse
       style="fill:#f1f1de;fill-opacity:1;stroke-width:0.170594"
       id="path277-7-1-0-3-3"
       cx="84.203224"
       cy="291.24228"
       rx="6.4755063"
       ry="1.2951013" /><ellipse
       style="fill:#c9c9bd;fill-opacity:1;stroke-width:0.150784"
       id="path277-3-0-9-0-7"
       cx="84.152328"
       cy="289.9689"
       rx="5.7235494"
       ry="1.1447098" /><ellipse
       style="fill:#f1f1de;fill-opacity:1;stroke-width:0.157214"
       id="path277-3-6-63-6-4-3"
       cx="84.185913"
       cy="289.28403"
       rx="5.9676137"
       ry="1.1935227" /><ellipse
       style="fill:#c9c9bd;fill-opacity:1;stroke-width:0.133904"
       id="path277-3-6-7-2-3-4-2"
       cx="84.130859"
       cy="289.15878"
       rx="5.0828052"
       ry="1.016561" /><path
       style="fill:#f1f1de;fill-opacity:1;stroke:#c9c9bd;stroke-width:0.267299px;stroke-linecap:butt;stroke-linejoin:miter;stroke-opacity:1"
       d="m 79.590635,289.07086 0.526976,-1.9344 h 8.229297 l 0.487595,1.93199 z"
       id="path422-0-8-4-6" /><ellipse
       style="fill:#f1f1de;fill-opacity:1;stroke-width:0.116557"
       id="path277-3-6-5-6-5-4-5"
       cx="84.219635"
       cy="288.95334"
       rx="4.4557481"
       ry="0.87862664" /><ellipse
       style="fill:#c9c9bd;fill-opacity:1;stroke-width:0.126879"
       id="path277-3-6-3-1-6-7-2"
       cx="84.217834"
       cy="286.81705"
       rx="4.8161163"
       ry="0.9632231" /><ellipse
       style="fill:#f1f1de;fill-opacity:1;stroke-width:0.103279"
       id="path277-3-6-3-6-5-1-6-6"
       cx="84.177933"
       cy="286.70731"
       rx="3.9202902"
       ry="0.78405792" /><ellipse
       style="fill:#c9c9bd;fill-opacity:1;stroke-width:0.121158"
       id="path277-3-6-3-2-5-1-3-5"
       cx="84.19648"
       cy="286.10776"
       rx="4.5989275"
       ry="0.91978544" /><ellipse
       style="fill:#f1f1de;fill-opacity:1;stroke-width:0.112579"
       id="path277-3-6-3-2-1-4-5-1-8"
       cx="84.259583"
       cy="285.83792"
       rx="4.6474714"
       ry="0.78584868" /><path
       style="fill:#f1f1de;fill-opacity:1;stroke:#c9c9bd;stroke-width:0.251346px;stroke-linecap:butt;stroke-linejoin:miter;stroke-opacity:1"
       d="m 79.825831,285.83668 c 0,0 0.425389,-1.69467 0.980857,-2.27899 0.555479,-0.58433 -0.03333,-1.36607 -0.03333,-1.36607 0,0 -1.23132,-0.50626 -1.951412,0.33238 -0.720079,0.83864 -1.881637,-0.062 -1.881637,-0.062 0,0 -0.261294,0.45645 -0.48959,0.42187 -0.228296,-0.0346 -0.496149,-0.27421 -0.368441,-0.44441 0.127695,-0.17021 0.347718,-0.28314 0.347718,-0.28314 0,0 0.101621,-0.1357 -0.113942,-0.21942 -0.215588,-0.0837 -0.311929,0.25143 -0.311929,0.25143 0,0 -0.06149,0.26804 -0.188832,0.17875 -0.12732,-0.0893 -0.429638,-0.15619 -0.383908,-0.25837 0.04577,-0.10221 0.08249,-0.25324 0.244748,-0.37128 0.162277,-0.11805 0.04647,-0.43934 0.04647,-0.43934 0,0 -0.378592,-0.11113 -0.452003,-0.90258 -0.07334,-0.79144 0.302317,-2.03258 0.302317,-2.03258 0,0 1.05468,-1.69824 2.533845,-1.96539 1.479154,-0.26714 3.886464,-1.92269 3.886464,-1.92269 0,0 0.387746,-0.1992 0.618823,-0.18668 0.231088,0.0126 0.443343,-0.0238 0.372161,-0.15678 -0.07123,-0.13298 -0.4007,-1.06585 -0.359488,-1.57782 0.04119,-0.51197 0.208547,-1.25621 0.400911,-1.26466 0.192353,-0.008 0.459749,-0.0405 0.691061,0.12972 0.2313,0.17016 1.456775,1.25488 1.617985,1.58375 0.161221,0.32888 0.276677,-0.83206 0.276677,-0.83206 0,0 0.369264,-1.33092 1.829325,-0.70926 1.460062,0.62166 2.62487,1.68465 2.62487,1.68465 0,0 0.613424,0.5026 1.325043,1.90453 0.71162,1.40192 0.525169,4.21597 0.525169,4.21597 0,0 -0.08777,1.11199 -0.555937,2.30986 -0.468103,1.19786 -1.112155,1.77246 -1.112155,1.77246 0,0 -0.811785,0.62469 -1.289347,0.49085 -0.47755,-0.13382 -0.281923,0.7766 -0.281923,0.7766 l -0.0012,1.11014 c 0,0 -2.319959,0.85887 -5.594783,0.50589 -3.274823,-0.35297 -3.254241,-0.39535 -3.254241,-0.39535 z"
       id="path6882-8-4-7-7" /><path
       style="fill:#f1f1de;fill-opacity:1;stroke:#c9c9bd;stroke-width:0.226477;stroke-dasharray:none;stroke-dashoffset:0;stroke-opacity:1"
       id="path9900-5-9"
       d="m 86.978834,272.31002 c 0.01678,-0.0539 -0.04166,0.065 -0.04213,0.0656 -0.05691,0.0934 -0.122321,0.18135 -0.188539,0.2683 -0.07956,0.10432 -0.167241,0.20189 -0.255473,0.2988 -0.06196,0.0669 -0.03086,0.0337 -0.09305,0.0995 -0.284505,0.30195 0.142528,0.70432 0.427032,0.40236 v 0 c 0.06665,-0.0708 0.03344,-0.0352 0.09986,-0.1069 0.09986,-0.10972 0.198702,-0.22039 0.288541,-0.33851 0.08109,-0.10678 0.161022,-0.21496 0.229751,-0.33028 0.05046,-0.0885 0.09963,-0.17985 0.115586,-0.28184 0.05445,-0.41128 -0.527152,-0.48834 -0.581647,-0.0771 z" /><path
       style="fill:#f1f1de;fill-opacity:1;stroke:#c9c9bd;stroke-width:0.226477;stroke-dasharray:none;stroke-dashoffset:0;stroke-opacity:1"
       id="path9902-9-6"
       d="m 88.730065,272.87078 c -0.01408,0.0278 -0.03732,0.0613 -0.05855,0.0887 -0.05187,0.0658 -0.112769,0.12364 -0.17461,0.17988 -0.08156,0.0735 -0.168497,0.14052 -0.255309,0.20753 -0.09188,0.0702 -0.184949,0.13867 -0.279377,0.20534 -0.0913,0.0651 -0.185922,0.1253 -0.280585,0.18535 -0.04682,0.0295 -0.09364,0.0588 -0.140662,0.088 -0.352284,0.21914 -0.04236,0.71735 0.309898,0.49822 v 0 c 0.04846,-0.0302 0.09681,-0.0604 0.145086,-0.0908 0.102912,-0.0652 0.205566,-0.13079 0.30477,-0.20155 0.101152,-0.0715 0.20106,-0.14486 0.299455,-0.22016 0.09963,-0.0769 0.199135,-0.15413 0.292401,-0.23871 0.0886,-0.0812 0.175068,-0.16522 0.248198,-0.26092 0.04189,-0.0566 0.08179,-0.11453 0.113591,-0.17758 0.186251,-0.37071 -0.338038,-0.63411 -0.524289,-0.26338 z" /><path
       style="fill:#f1f1de;fill-opacity:1;stroke:#c9c9bd;stroke-width:0.226477;stroke-dasharray:none;stroke-dashoffset:0;stroke-opacity:1"
       id="path9910-6-0"
       d="m 89.805386,273.98469 c -0.02077,0.0309 -0.04389,0.06 -0.06712,0.089 -0.04283,0.0548 -0.09529,0.10091 -0.146835,0.14726 -0.07334,0.0641 -0.151551,0.12224 -0.229833,0.18007 -0.0859,0.0623 -0.173531,0.12209 -0.260871,0.18231 -0.08554,0.059 -0.171442,0.11773 -0.257679,0.17585 -0.06794,0.0457 -0.137001,0.0897 -0.205836,0.13401 -0.348798,0.22464 -0.0311,0.71791 0.31769,0.49328 v 0 c 0.07229,-0.0466 0.144722,-0.0928 0.216068,-0.14076 0.08801,-0.0593 0.175526,-0.11916 0.262866,-0.17937 0.09259,-0.0638 0.185535,-0.1273 0.276513,-0.1935 0.09341,-0.069 0.186428,-0.13881 0.273533,-0.21572 0.07534,-0.0678 0.15012,-0.1369 0.212666,-0.21706 0.02934,-0.0367 0.05855,-0.0737 0.08496,-0.11241 0.242483,-0.33665 -0.2336,-0.67958 -0.476083,-0.34294 z" /><path
       style="fill:#f1f1de;fill-opacity:1;stroke:#c9c9bd;stroke-width:0.226477;stroke-dasharray:none;stroke-dashoffset:0;stroke-opacity:1"
       id="path9914-2-4"
       d="m 90.699337,275.53078 c 0.0023,-10e-4 0.0082,-0.006 0.0059,-0.005 -0.03708,0.0202 -0.0717,0.0487 -0.105963,0.0731 -0.06219,0.0451 -0.127602,0.0855 -0.19321,0.12541 -0.08414,0.0502 -0.170409,0.0969 -0.257609,0.14161 -0.09622,0.0481 -0.194711,0.0914 -0.293962,0.13283 -0.09939,0.041 -0.200204,0.0785 -0.30132,0.115 -0.07897,0.0285 -0.15857,0.055 -0.238294,0.0812 -0.394094,0.12965 -0.210741,0.687 0.183364,0.55734 v 0 c 0.08508,-0.0281 0.170069,-0.0563 0.254335,-0.0868 0.11007,-0.0398 0.219824,-0.0807 0.328051,-0.12543 0.113474,-0.0474 0.226067,-0.097 0.335961,-0.15237 0.09974,-0.0513 0.198326,-0.10455 0.294491,-0.16227 0.07792,-0.0474 0.155436,-0.0958 0.229375,-0.14929 0.03509,-0.0251 0.07041,-0.0496 0.106433,-0.0735 0.334024,-0.24608 -0.01396,-0.71846 -0.348001,-0.47239 z" /><path
       style="fill:#f1f1de;fill-opacity:1;stroke:#c9c9bd;stroke-width:0.226477;stroke-dasharray:none;stroke-dashoffset:0;stroke-opacity:1"
       id="path9922-1-1"
       d="m 91.164096,277.38092 c 0.0023,-9.4e-4 -0.01878,0.008 -0.01408,0.006 0.02511,-0.0117 -0.01479,0.002 -0.02007,0.004 -0.0541,0.0117 -0.108662,0.0201 -0.163157,0.029 -0.08554,0.0149 -0.171407,0.0282 -0.257398,0.0404 -0.0947,0.0133 -0.189372,0.0262 -0.284211,0.0383 -0.09845,0.0124 -0.197164,0.0229 -0.295911,0.0327 -0.09927,0.009 -0.198478,0.0191 -0.297881,0.0268 -0.07721,0.006 -0.154545,0.009 -0.231899,0.0122 -0.414606,0.015 -0.393413,0.60133 0.02124,0.58634 v 0 c 0.08531,-0.004 0.170503,-0.007 0.25559,-0.0136 0.103968,-0.008 0.207772,-0.0178 0.311541,-0.0279 0.103851,-0.0106 0.207655,-0.0215 0.311224,-0.0345 0.09775,-0.0124 0.195381,-0.0258 0.292977,-0.0394 0.08989,-0.0128 0.17968,-0.0265 0.269156,-0.0421 0.07275,-0.0118 0.145579,-0.0233 0.217265,-0.0405 0.0399,-0.0106 0.07991,-0.0212 0.117616,-0.0385 0.381092,-0.16399 0.149158,-0.70293 -0.231934,-0.53894 z" /><path
       style="fill:#f1f1de;fill-opacity:1;stroke:#c9c9bd;stroke-width:0.226477;stroke-dasharray:none;stroke-dashoffset:0;stroke-opacity:1"
       id="path9944-7-0"
       d="m 89.639846,279.43046 c -0.0012,-2.8e-4 -0.0059,-10e-4 -0.0047,-9.2e-4 0.03403,0.0106 0.06923,0.0188 0.103851,0.0273 0.0609,0.0148 0.121265,0.0315 0.181135,0.0499 0.07498,0.0236 0.148888,0.0501 0.222863,0.0765 0.07874,0.0271 0.156738,0.0561 0.234398,0.0861 0.07264,0.0285 0.144218,0.0597 0.215845,0.0907 0.07182,0.0306 0.143244,0.0622 0.21479,0.0934 0.01185,0.005 0.02382,0.0106 0.03567,0.0155 0.380728,0.16483 0.613835,-0.3736 0.233107,-0.53843 v 0 c -0.01173,-0.005 -0.02253,-0.009 -0.03391,-0.0147 -0.07217,-0.0316 -0.144253,-0.0634 -0.216714,-0.0944 -0.07886,-0.0341 -0.157701,-0.0684 -0.237754,-0.0997 -0.08238,-0.0317 -0.165035,-0.0625 -0.248432,-0.0913 -0.08249,-0.0295 -0.16507,-0.059 -0.248761,-0.0851 -0.07041,-0.0214 -0.141214,-0.0412 -0.212713,-0.0586 -0.03814,-0.009 -0.07592,-0.0199 -0.113825,-0.0298 -0.405324,-0.0885 -0.530508,0.48469 -0.125184,0.57321 z" /><path
       style="fill:#f1f1de;fill-opacity:1;stroke:#c9c9bd;stroke-width:0.226477;stroke-dasharray:none;stroke-dashoffset:0;stroke-opacity:1"
       id="path9946-8-4"
       d="m 89.058445,280.65706 c 0.04447,0.0431 0.09094,0.0838 0.138562,0.12328 0.06524,0.054 0.133082,0.10467 0.201635,0.15439 0.07053,0.0497 0.14254,0.0974 0.213299,0.14679 0.06923,0.0485 0.136544,0.0994 0.204053,0.15018 0.06959,0.0529 0.139348,0.10549 0.209086,0.15816 0.06982,0.0517 0.138186,0.10549 0.20755,0.1579 0.04694,0.035 0.02347,0.0176 0.07029,0.0519 0.334787,0.24504 0.68132,-0.22841 0.346545,-0.47345 v 0 c -0.04213,-0.0308 -0.02101,-0.0153 -0.06325,-0.0467 -0.06935,-0.0523 -0.137587,-0.10619 -0.207443,-0.15781 -0.07006,-0.0529 -0.140322,-0.10585 -0.210248,-0.15904 -0.07299,-0.0549 -0.145978,-0.10996 -0.220868,-0.16236 -0.06806,-0.0474 -0.137001,-0.0934 -0.205003,-0.14089 -0.0582,-0.0421 -0.11582,-0.0852 -0.171278,-0.13087 -0.03579,-0.0296 -0.07088,-0.06 -0.104203,-0.0925 -0.297682,-0.28899 -0.706374,0.13199 -0.408691,0.42098 z" /><path
       style="fill:#f1f1de;fill-opacity:1;stroke:#c9c9bd;stroke-width:0.226477;stroke-dasharray:none;stroke-dashoffset:0;stroke-opacity:1"
       id="path9948-5-8"
       d="m 88.253619,281.67396 c 0.02546,0.0518 0.05433,0.10174 0.08355,0.15135 0.05492,0.0879 0.113121,0.17355 0.172662,0.25832 0.07076,0.1 0.148677,0.1945 0.226641,0.28885 0.0771,0.0945 0.157384,0.18622 0.238611,0.27713 0.07721,0.0859 0.154404,0.1718 0.232063,0.2573 0.278942,0.30711 0.71325,-0.0874 0.434308,-0.39449 v 0 c -0.07663,-0.0844 -0.152772,-0.16901 -0.228883,-0.25377 -0.07616,-0.0853 -0.151528,-0.17128 -0.223801,-0.2599 -0.06818,-0.0825 -0.136661,-0.16502 -0.198784,-0.25232 -0.05069,-0.0722 -0.100213,-0.14511 -0.147609,-0.21946 -0.02065,-0.035 -0.04119,-0.0701 -0.05949,-0.10619 -0.179035,-0.37427 -0.708322,-0.12107 -0.529276,0.25319 z" /><path
       style="fill:#f1f1de;fill-opacity:1;stroke:#c9c9bd;stroke-width:0.274896;stroke-dasharray:none;stroke-dashoffset:0;stroke-opacity:1"
       id="path9954-7-7"
       d="m 83.278809,272.94566 c -0.01232,-10e-4 -0.0514,-0.0404 -0.02124,-0.0106 0.01056,0.0131 0.02089,0.0268 0.03074,0.0405 0.02359,0.032 0.04318,0.0661 0.06243,0.10021 0.02652,0.0467 0.05034,0.0945 0.07217,0.14303 0.02558,0.0569 0.04882,0.11465 0.07099,0.17263 0.02265,0.0597 0.04412,0.11987 0.06489,0.18012 0.156422,0.45228 0.881923,0.25726 0.725501,-0.19501 v 0 c -0.02312,-0.0666 -0.04682,-0.13324 -0.07193,-0.19938 -0.02664,-0.0695 -0.05457,-0.13861 -0.08531,-0.2068 -0.02981,-0.0654 -0.06161,-0.12983 -0.09751,-0.19277 -0.0318,-0.0562 -0.06513,-0.11171 -0.103851,-0.16446 -0.03591,-0.0488 -0.07346,-0.0968 -0.118848,-0.13911 -0.03696,-0.0338 -0.0751,-0.067 -0.120232,-0.0925 -0.452144,-0.25432 -0.860108,0.30941 -0.407964,0.56372 z" /><ellipse
       style="fill:none;fill-opacity:1;stroke:#c9c9bd;stroke-width:0.124729;stroke-dasharray:none;stroke-dashoffset:0;stroke-opacity:1"
       id="path10008-4-0"
       cx="230.09567"
       cy="141.07506"
       rx="0.53883469"
       ry="0.61581367"
       transform="matrix(0.6950185,0.71899186,-0.59250779,0.80556472,0,0)" /><ellipse
       style="fill:#aeae9e;fill-opacity:1;stroke:#aeae9c;stroke-width:0.226;stroke-dasharray:none;stroke-dashoffset:0;stroke-opacity:1"
       id="path10012-1-8"
       cx="149.39626"
       cy="247.77229"
       rx="0.20635262"
       ry="0.33388555"
       transform="rotate(15.789771)" /><ellipse
       style="fill:#1a1a1a;stroke-width:0.408081"
       id="path2053-7-4-8-8-6"
       cx="80.146637"
       cy="277.48306"
       rx="0.50295174"
       ry="0.53364038" /><path
       style="fill:#000000;fill-opacity:1;stroke:#c9c9bd;stroke-width:0.226477;stroke-dasharray:none;stroke-dashoffset:0;stroke-opacity:1"
       id="path10063-5-2"
       d="m 88.646034,283.82786 c -0.0059,-0.0157 -0.01056,-0.0316 -0.01479,-0.0475 -0.0059,-0.0225 -0.01056,-0.0454 -0.01596,-0.0681 -0.0082,-0.0326 -0.01643,-0.0651 -0.02593,-0.0973 -0.01197,-0.0415 -0.02476,-0.0829 -0.03802,-0.12399 -0.0142,-0.0456 -0.02992,-0.0907 -0.04506,-0.13603 -0.01443,-0.0446 -0.02816,-0.0893 -0.04307,-0.13376 -0.01467,-0.0432 -0.0291,-0.0864 -0.044,-0.1294 -0.01561,-0.0446 -0.02945,-0.0898 -0.04224,-0.13525 -0.01396,-0.0493 -0.02875,-0.0983 -0.04377,-0.14724 -0.01537,-0.0509 -0.03098,-0.10174 -0.04635,-0.15262 -0.01572,-0.0526 -0.03157,-0.10526 -0.04741,-0.15783 -0.01713,-0.0537 -0.03368,-0.10761 -0.04952,-0.16172 -0.01526,-0.0541 -0.03051,-0.10819 -0.04588,-0.16223 -0.01455,-0.0526 -0.02887,-0.10514 -0.04377,-0.15757 -0.01502,-0.0533 -0.03028,-0.10655 -0.04483,-0.15988 -0.0142,-0.0518 -0.02687,-0.10385 -0.03861,-0.15614 -0.01209,-0.0544 -0.0223,-0.10937 -0.03192,-0.16426 -0.01056,-0.0543 -0.01678,-0.10913 -0.01971,-0.16438 -0.0023,-0.0581 -0.0012,-0.11629 -4.34e-4,-0.17435 0.0012,-0.0607 0.0059,-0.12123 0.01056,-0.18171 0.0047,-0.0607 0.01267,-0.12101 0.02159,-0.18118 0.0094,-0.0616 0.01807,-0.12336 0.02851,-0.18481 0.0094,-0.0594 0.02124,-0.11852 0.03356,-0.17744 0.01174,-0.0575 0.02582,-0.11418 0.03919,-0.17109 0.01385,-0.057 0.02746,-0.11418 0.04236,-0.17094 0.01443,-0.0563 0.03098,-0.11218 0.04694,-0.1681 0.01631,-0.0581 0.03286,-0.11617 0.04905,-0.17425 0.01702,-0.0621 0.03427,-0.12401 0.05081,-0.18616 0.01584,-0.064 0.03192,-0.12779 0.04846,-0.19158 0.01631,-0.0633 0.03168,-0.12687 0.04623,-0.19062 0.01467,-0.0651 0.02687,-0.13079 0.03861,-0.1965 0.01361,-0.0675 0.01995,-0.13603 0.02593,-0.2045 0.0059,-0.0676 0.01173,-0.13515 0.01502,-0.20284 0.0035,-0.0675 0.0059,-0.13489 0.0082,-0.20236 0.0023,-0.0657 0.0047,-0.13148 0.007,-0.19723 0.0023,-0.0642 0.0012,-0.12848 5.87e-4,-0.19272 -5.52e-4,-0.0623 -0.0023,-0.1245 -0.0059,-0.18667 -0.0035,-0.0613 -0.007,-0.1225 -0.01056,-0.18376 -0.0035,-0.0624 -0.007,-0.12474 -0.01256,-0.18698 -0.0059,-0.0614 -0.01173,-0.12278 -0.01866,-0.18399 -0.0082,-0.0628 -0.01608,-0.12544 -0.02535,-0.18799 -0.0094,-0.0648 -0.01983,-0.12935 -0.0318,-0.1937 -0.01174,-0.0647 -0.02476,-0.12896 -0.03919,-0.19301 -0.01443,-0.063 -0.03004,-0.12572 -0.04706,-0.18807 -0.01702,-0.0617 -0.03814,-0.12219 -0.05867,-0.1828 -0.01889,-0.0595 -0.04166,-0.11746 -0.06513,-0.17523 -0.02452,-0.0576 -0.05058,-0.11453 -0.07721,-0.17116 -0.02652,-0.0562 -0.05644,-0.11066 -0.08684,-0.16488 -0.02969,-0.0513 -0.06008,-0.10209 -0.09118,-0.15252 -0.03051,-0.0489 -0.06266,-0.0968 -0.09622,-0.14363 -0.03379,-0.0468 -0.06923,-0.0922 -0.10608,-0.13659 -0.03978,-0.0497 -0.08343,-0.096 -0.127931,-0.14144 -0.04612,-0.0472 -0.09306,-0.0934 -0.141272,-0.13837 -0.04553,-0.0427 -0.09165,-0.0846 -0.13774,-0.12664 -0.04717,-0.0412 -0.09575,-0.0806 -0.144042,-0.12053 -0.04893,-0.0401 -0.09869,-0.0792 -0.149369,-0.11722 -0.05163,-0.0393 -0.10479,-0.0764 -0.159461,-0.11136 -0.06266,-0.0417 -0.130641,-0.0738 -0.198244,-0.10644 -0.0771,-0.0373 -0.154181,-0.0747 -0.231758,-0.11101 -0.07803,-0.0372 -0.156292,-0.0742 -0.234539,-0.11101 -0.07839,-0.0373 -0.158322,-0.0712 -0.23854,-0.10443 -0.07451,-0.0316 -0.149498,-0.0622 -0.224951,-0.0915 -0.07076,-0.0277 -0.142435,-0.0527 -0.214414,-0.0768 -0.06865,-0.0229 -0.138069,-0.0434 -0.20762,-0.0634 -0.06513,-0.0187 -0.130547,-0.0364 -0.196707,-0.0512 -0.0629,-0.0143 -0.126838,-0.0219 -0.190956,-0.0274 -0.05973,-0.005 -0.119669,-0.004 -0.17948,-0.002 -0.05926,9.3e-4 -0.118109,0.007 -0.176781,0.0149 -0.05691,0.008 -0.113356,0.0187 -0.169788,0.0291 -0.05222,0.009 -0.10432,0.0199 -0.156375,0.0303 -0.05198,0.009 -0.103381,0.0211 -0.154591,0.034 -0.04905,0.0125 -0.09822,0.0246 -0.147679,0.0358 -0.04952,0.0106 -0.09939,0.0205 -0.149276,0.0298 -0.04952,0.009 -0.09939,0.0171 -0.14924,0.0247 -0.05163,0.008 -0.103381,0.0167 -0.155107,0.0244 -0.04952,0.007 -0.09904,0.0143 -0.148677,0.0208 -0.04905,0.006 -0.0981,0.0117 -0.147234,0.0171 -0.0487,0.005 -0.09728,0.0106 -0.145602,0.0182 -0.08179,0.0136 -0.06255,0.12936 0.01924,0.1157 v 0 c 0.04612,-0.008 0.09259,-0.0127 0.139102,-0.0174 0.04987,-0.006 0.09974,-0.0117 0.149475,-0.0174 0.05046,-0.007 0.100917,-0.0135 0.151329,-0.0211 0.05163,-0.008 0.103146,-0.0161 0.154673,-0.0244 0.05128,-0.007 0.102443,-0.0157 0.153418,-0.0252 0.0514,-0.009 0.102794,-0.0194 0.153828,-0.0306 0.05034,-0.0117 0.100565,-0.0236 0.150508,-0.0365 0.04928,-0.0124 0.0988,-0.0237 0.148782,-0.0327 0.05163,-0.0106 0.103147,-0.0204 0.154908,-0.03 0.05433,-0.0106 0.108662,-0.0202 0.163298,-0.028 0.0548,-0.007 0.109836,-0.013 0.165082,-0.0141 0.05539,-10e-4 0.110892,-0.002 0.166209,10e-4 0.05891,0.005 0.117732,0.012 0.175478,0.025 0.06384,0.0142 0.126886,0.0315 0.18976,0.0494 0.06794,0.0195 0.135628,0.0395 0.202668,0.0618 0.07017,0.0236 0.140192,0.0479 0.209192,0.0749 0.07463,0.0291 0.148888,0.0594 0.222686,0.0906 0.07851,0.0324 0.15668,0.0656 0.233377,0.10209 0.07827,0.0368 0.156598,0.0738 0.23475,0.11112 0.07721,0.0362 0.153888,0.0733 0.230585,0.11054 0.06337,0.0305 0.127238,0.0604 0.185934,0.0995 0.05222,0.0333 0.103029,0.0689 0.152291,0.10643 0.04917,0.037 0.09751,0.0749 0.14511,0.11395 0.04682,0.0386 0.09388,0.0769 0.139571,0.11664 0.04576,0.0418 0.09165,0.0834 0.136883,0.12585 0.04694,0.0438 0.0927,0.0887 0.137494,0.13469 0.04236,0.0432 0.0839,0.0871 0.121547,0.13437 0.03509,0.0421 0.06876,0.0854 0.100917,0.12983 0.03203,0.0447 0.06266,0.0904 0.09176,0.13693 0.03028,0.0489 0.05973,0.0983 0.0886,0.14819 0.02899,0.0519 0.05762,0.10397 0.08308,0.15765 0.02582,0.0547 0.05093,0.1096 0.07475,0.16528 0.02265,0.0556 0.04459,0.11148 0.06278,0.16872 0.01983,0.0584 0.04013,0.11665 0.05668,0.17609 0.01666,0.0607 0.0318,0.12171 0.04576,0.18302 0.0142,0.0625 0.02711,0.12531 0.03826,0.18844 0.01173,0.063 0.02218,0.12614 0.0311,0.18956 0.0094,0.0615 0.01748,0.12304 0.02499,0.18473 0.007,0.0598 0.01291,0.11994 0.01819,0.18002 0.0059,0.0611 0.0094,0.12249 0.01232,0.18383 0.0035,0.061 0.007,0.12204 0.01056,0.18307 0.0035,0.0607 0.0047,0.12141 0.0059,0.18217 8.68e-4,0.0624 0.0012,0.12497 -5.28e-4,0.18745 -0.0023,0.0655 -0.0047,0.13104 -0.007,0.19654 -0.0023,0.0666 -0.0047,0.1333 -0.0082,0.19991 -0.0035,0.0665 -0.0094,0.13292 -0.01479,0.1993 -0.0059,0.065 -0.01173,0.13011 -0.02452,0.19417 -0.01173,0.064 -0.02323,0.12773 -0.03755,0.19105 -0.01432,0.0627 -0.02934,0.12514 -0.04541,0.18738 -0.01643,0.0635 -0.03239,0.12702 -0.04823,0.19065 -0.01655,0.0617 -0.03356,0.12338 -0.05058,0.18504 -0.01608,0.0579 -0.03251,0.11559 -0.04882,0.17338 -0.01619,0.0568 -0.03297,0.11347 -0.04764,0.17068 -0.01514,0.0577 -0.02898,0.1157 -0.04307,0.17373 -0.01361,0.0578 -0.0284,0.11558 -0.03978,0.17395 -0.01267,0.0603 -0.02429,0.12093 -0.03438,0.18178 -0.01056,0.0622 -0.0196,0.12469 -0.02887,0.18711 -0.0094,0.0628 -0.01784,0.12568 -0.02253,0.18897 -0.0047,0.0629 -0.0094,0.12596 -0.01174,0.18909 -0.0011,0.061 -0.0012,0.12199 5.87e-4,0.18295 0.0035,0.06 0.0094,0.11949 0.02136,0.17839 0.0094,0.0567 0.02054,0.11335 0.03297,0.16955 0.0122,0.0541 0.02535,0.10796 0.04001,0.16141 0.01467,0.0537 0.03004,0.10725 0.04518,0.16092 0.0149,0.0525 0.02922,0.10515 0.04377,0.15766 0.01549,0.0543 0.03086,0.10878 0.04612,0.16318 0.01596,0.0545 0.03251,0.10866 0.04975,0.16263 0.01584,0.0526 0.03157,0.10514 0.04741,0.15772 0.01537,0.051 0.0311,0.10209 0.04659,0.15319 0.01479,0.0481 0.02934,0.0963 0.04307,0.14475 0.0135,0.0478 0.02793,0.0952 0.04436,0.14192 0.01479,0.0425 0.0291,0.0853 0.04354,0.12792 0.01479,0.0445 0.02851,0.0892 0.04307,0.13379 0.01502,0.0449 0.03063,0.0898 0.04471,0.13501 0.01302,0.0401 0.02546,0.0805 0.0372,0.12105 0.0082,0.0298 0.01666,0.0598 0.02406,0.0901 0.0059,0.0244 0.01056,0.0489 0.01725,0.0731 0.0047,0.0187 0.01056,0.0371 0.01725,0.0553 0.02734,0.0783 0.138162,0.0395 0.110774,-0.0387 z" /><path
       style="fill:#000000;fill-opacity:1;stroke:#c9c9bd;stroke-width:0.226477;stroke-dasharray:none;stroke-dashoffset:0;stroke-opacity:1"
       id="path10083-9-4"
       d="m 76.613294,281.36768 c -0.0035,0.009 -0.0082,0.0187 -0.01197,0.028 -0.0059,0.0161 -0.01197,0.0324 -0.01772,0.0487 -0.007,0.0196 -0.01361,0.0394 -0.02007,0.0591 -0.007,0.0217 -0.01385,0.0433 -0.02065,0.065 -0.007,0.0222 -0.01385,0.0445 -0.02054,0.0667 -0.007,0.0216 -0.01338,0.0431 -0.01983,0.0645 -0.0059,0.0204 -0.01256,0.0408 -0.01866,0.0614 -0.0059,0.0206 -0.01174,0.0415 -0.01702,0.0624 -0.0047,0.019 -0.0094,0.0381 -0.01385,0.0573 -0.0023,0.0106 -0.0059,0.0217 -0.0082,0.0326 -0.02183,0.08 0.09141,0.11089 0.113238,0.0309 v 0 c 0.0035,-0.012 0.0059,-0.0239 0.0094,-0.036 0.0047,-0.0187 0.0082,-0.0373 0.01349,-0.056 0.0047,-0.0192 0.0094,-0.0385 0.01561,-0.0576 0.0059,-0.0204 0.01244,-0.0407 0.01866,-0.0611 0.0059,-0.0215 0.01314,-0.0428 0.01971,-0.0642 0.007,-0.0221 0.01361,-0.044 0.02042,-0.0661 0.007,-0.0211 0.01338,-0.0422 0.02007,-0.0634 0.0059,-0.0188 0.01244,-0.0376 0.01901,-0.0563 0.0047,-0.0146 0.01056,-0.0292 0.01584,-0.0437 0.0035,-0.008 0.007,-0.0155 0.01056,-0.0233 0.03473,-0.0753 -0.0717,-0.12453 -0.10655,-0.0492 z" /><path
       style="fill:#000000;fill-opacity:1;stroke:#c9c9bd;stroke-width:0.226477;stroke-dasharray:none;stroke-dashoffset:0;stroke-opacity:1"
       id="path10085-7-7"
       d="m 76.655409,281.29344 c -0.0047,0.0106 -0.0094,0.021 -0.0142,0.0312 -0.0082,0.0172 -0.01854,0.0337 -0.02863,0.0501 -0.01361,0.0212 -0.02781,0.0421 -0.04201,0.063 -0.01502,0.0219 -0.03051,0.0435 -0.04612,0.0649 -0.01537,0.0205 -0.03063,0.041 -0.04647,0.0611 -0.01467,0.0188 -0.02992,0.037 -0.04506,0.0553 -0.01432,0.0171 -0.02851,0.0344 -0.04295,0.0514 -0.01385,0.0163 -0.02781,0.0326 -0.04177,0.0488 -0.01408,0.016 -0.02805,0.0319 -0.04189,0.048 -0.0094,0.0106 -0.0047,0.006 -0.0142,0.0168 -0.05316,0.0637 0.03685,0.13889 0.09012,0.0752 v 0 c 0.0082,-0.0106 0.0047,-0.005 0.01326,-0.0157 0.01361,-0.016 0.02758,-0.0318 0.04142,-0.0475 0.01432,-0.0165 0.02851,-0.0332 0.04271,-0.0499 0.01467,-0.0174 0.0291,-0.0349 0.04365,-0.0522 0.01584,-0.019 0.03168,-0.0381 0.04694,-0.0576 0.01655,-0.0211 0.03274,-0.0426 0.04882,-0.0642 0.01643,-0.0225 0.03274,-0.0452 0.04846,-0.0682 0.01525,-0.0223 0.03051,-0.0448 0.04506,-0.0676 0.01197,-0.0194 0.02359,-0.0388 0.03368,-0.0593 0.0059,-0.0118 0.01174,-0.0237 0.01643,-0.0361 0.03356,-0.0759 -0.07369,-0.12339 -0.107254,-0.0475 z" /><path
       style="fill:#000000;fill-opacity:1;stroke:#c9c9bd;stroke-width:0.226477;stroke-dasharray:none;stroke-dashoffset:0;stroke-opacity:1"
       id="path10093-5-9"
       d="m 76.623374,281.28873 c -0.007,0.0162 -0.01561,0.0317 -0.02359,0.0475 -0.01831,0.0352 -0.03779,0.0699 -0.05703,0.10467 -0.0196,0.0358 -0.03943,0.0715 -0.06102,0.10608 -0.01854,0.0297 -0.03896,0.0582 -0.06043,0.0858 -0.01819,0.0231 -0.03872,0.044 -0.06008,0.0641 -0.02323,0.0217 -0.04729,0.0425 -0.07099,0.0637 -0.01819,0.0161 -0.03567,0.0329 -0.05316,0.0496 -0.05985,0.0575 0.02159,0.14209 0.08132,0.0846 v 0 c 0.01643,-0.0157 0.03286,-0.0316 0.04987,-0.0466 0.02452,-0.0218 0.04928,-0.0434 0.07334,-0.0658 0.0257,-0.0242 0.05034,-0.0495 0.07217,-0.0773 0.02406,-0.0309 0.04682,-0.0627 0.06759,-0.0958 0.02265,-0.0365 0.04365,-0.0738 0.06431,-0.11148 0.01983,-0.0359 0.0399,-0.0718 0.05891,-0.1082 0.0094,-0.0178 0.01854,-0.0354 0.02652,-0.0537 0.03321,-0.076 -0.0744,-0.12295 -0.107606,-0.0469 z" /><path
       style="fill:#c9c9bd;fill-opacity:1;stroke:#c9c9bd;stroke-width:0.226477;stroke-dasharray:none;stroke-dashoffset:0;stroke-opacity:1"
       id="path10117-8-3"
       d="m 76.73064,281.37797 c 0.0023,-0.0171 -0.0082,0.0251 -0.0082,0.0253 -0.0059,0.0222 -0.01361,0.0441 -0.02147,0.0658 -0.01056,0.0289 -0.02335,0.057 -0.03626,0.085 -0.01525,0.0329 -0.03204,0.0649 -0.04928,0.0967 -0.01936,0.0359 -0.04002,0.0711 -0.06125,0.10584 -0.01913,0.0311 -0.03908,0.0617 -0.05914,0.0922 -0.04553,0.0693 0.05245,0.13379 0.0981,0.0644 v 0 c 0.02077,-0.0316 0.04142,-0.0632 0.06114,-0.0954 0.02241,-0.0365 0.044,-0.0735 0.06431,-0.11113 0.01842,-0.034 0.03638,-0.0683 0.05269,-0.1035 0.01432,-0.031 0.02828,-0.0621 0.04001,-0.0941 0.0094,-0.0248 0.01737,-0.0499 0.02452,-0.0753 0.0047,-0.0184 0.01056,-0.0368 0.01185,-0.056 0,-0.083 -0.117345,-0.083 -0.117345,0 z" /></g></svg>
