<?xml version="1.0" encoding="UTF-8" standalone="no"?>
<svg
   width="45"
   height="45"
   version="1.1"
   id="svg38472"
   sodipodi:docname="bB.svg"
   xml:space="preserve"
   xmlns:inkscape="http://www.inkscape.org/namespaces/inkscape"
   xmlns:sodipodi="http://sodipodi.sourceforge.net/DTD/sodipodi-0.dtd"
   xmlns="http://www.w3.org/2000/svg"
   xmlns:svg="http://www.w3.org/2000/svg"><defs
     id="defs38476" /><sodipodi:namedview
     id="namedview38474"
     pagecolor="#ffffff"
     bordercolor="#999999"
     borderopacity="1"
     inkscape:showpageshadow="0"
     inkscape:pageopacity="0"
     inkscape:pagecheckerboard="0"
     inkscape:deskcolor="#d1d1d1"
     showgrid="false" /><g
     id="g22796"
     transform="matrix(1.7026772,0,0,1.7026772,-183.89458,-454.07212)"><ellipse
       style="fill:#f1f1de;fill-opacity:1;stroke-width:0.209291"
       id="path277-7-0-6-4"
       cx="121.21768"
       cy="290.1965"
       rx="7.3850436"
       ry="1.7092129" /><ellipse
       style="fill:#f1f1de;fill-opacity:1;stroke-width:0.193229"
       id="path277-0-8"
       cx="121.21651"
       cy="289.8009"
       rx="7.3347349"
       ry="1.4669471" /><ellipse
       style="fill:#f1f1de;fill-opacity:1;stroke-width:0.193229"
       id="path277-7-6-5"
       cx="121.2143"
       cy="290.53033"
       rx="7.3347349"
       ry="1.4669471" /><ellipse
       style="fill:#c9c9bd;fill-opacity:1;stroke-width:0.170792"
       id="path277-3-2-8"
       cx="121.15664"
       cy="289.08801"
       rx="6.4830017"
       ry="1.2966002" /><ellipse
       style="fill:#f1f1de;fill-opacity:1;stroke-width:0.178074"
       id="path277-3-6-6-2"
       cx="121.19468"
       cy="288.31223"
       rx="6.7594509"
       ry="1.3518901" /><ellipse
       style="fill:#c9c9bd;fill-opacity:1;stroke-width:0.151672"
       id="path277-3-6-7-1-6"
       cx="121.13233"
       cy="288.17038"
       rx="5.7572374"
       ry="1.1514475" /><path
       id="path285-8-0"
       style="fill:#f1f1de;fill-opacity:1;stroke-width:0.244857"
       d="m 121.27847,272.99638 a 7.1183597,6.2723782 0 0 0 -7.11825,6.27228 7.1183597,6.2723782 0 0 0 1.21761,3.50741 c 3.94138,-0.005 7.88367,0.0214 11.82471,-0.0342 a 7.1183597,6.2723782 0 0 0 1.19419,-3.47329 7.1183597,6.2723782 0 0 0 -7.11826,-6.27227 z" /><path
       id="path285-9-7-6"
       style="fill:#f1f1de;fill-opacity:1;stroke-width:0.244857"
       d="m 121.27875,285.85969 a 7.1183597,6.2723782 0 0 0 7.11826,-6.27228 7.1183597,6.2723782 0 0 0 -1.21762,-3.50741 c -3.94136,0.005 -7.88365,-0.0214 -11.8247,0.0342 a 7.1183597,6.2723782 0 0 0 -1.1942,3.47329 7.1183597,6.2723782 0 0 0 7.11826,6.27227 z" /><path
       style="fill:#f1f1de;fill-opacity:1;stroke:#c9c9bd;stroke-width:0.351673px;stroke-linecap:butt;stroke-linejoin:miter;stroke-opacity:1"
       d="m 115.9667,288.11734 0.60017,-2.93995 h 9.37236 l 0.55534,2.93629 z"
       id="path422-9-6" /><ellipse
       style="fill:#f1f1de;fill-opacity:1;stroke-width:0.132023"
       id="path277-3-6-5-2-4"
       cx="121.23288"
       cy="287.93768"
       rx="5.046977"
       ry="0.99521077" /><ellipse
       style="fill:#c9c9bd;fill-opacity:1;stroke-width:0.145194"
       id="path277-3-6-3-0-6"
       cx="121.23668"
       cy="284.79108"
       rx="5.5112939"
       ry="1.1022587" /><ellipse
       style="fill:#f1f1de;fill-opacity:1;stroke-width:0.118187"
       id="path277-3-6-3-6-2-2"
       cx="121.19102"
       cy="284.66556"
       rx="4.4861608"
       ry="0.897232" /><ellipse
       style="fill:#c9c9bd;fill-opacity:1;stroke-width:0.138646"
       id="path277-3-6-3-2-3-8"
       cx="121.21225"
       cy="283.97949"
       rx="5.2627554"
       ry="1.0525509" /><ellipse
       style="fill:#f1f1de;fill-opacity:1;stroke-width:0.128829"
       id="path277-3-6-3-2-1-7-9"
       cx="121.28446"
       cy="283.67068"
       rx="5.3183064"
       ry="0.8992812" /><ellipse
       style="fill:#1a1a1a;stroke-width:0.462229"
       id="path2053-5-6"
       cx="120.19137"
       cy="287.1698"
       rx="0.5696879"
       ry="0.60444862" /><ellipse
       style="fill:#1a1a1a;stroke-width:0.462229"
       id="path2053-3-9-0"
       cx="122.3"
       cy="287.17245"
       rx="0.5696879"
       ry="0.60444862" /></g></svg>
