<?xml version="1.0" encoding="UTF-8" standalone="no"?>
<svg
   width="45"
   height="45"
   version="1.1"
   id="svg38472"
   sodipodi:docname="bB.svg"
   xml:space="preserve"
   inkscape:export-filename="../chesspark/bP.svg"
   inkscape:export-xdpi="96"
   inkscape:export-ydpi="96"
   xmlns:inkscape="http://www.inkscape.org/namespaces/inkscape"
   xmlns:sodipodi="http://sodipodi.sourceforge.net/DTD/sodipodi-0.dtd"
   xmlns="http://www.w3.org/2000/svg"
   xmlns:svg="http://www.w3.org/2000/svg"><defs
     id="defs38476" /><sodipodi:namedview
     id="namedview38474"
     pagecolor="#ffffff"
     bordercolor="#999999"
     borderopacity="1"
     inkscape:showpageshadow="0"
     inkscape:pageopacity="0"
     inkscape:pagecheckerboard="0"
     inkscape:deskcolor="#d1d1d1"
     showgrid="false" /><g
     id="g22818"
     transform="matrix(1.7026772,0,0,1.7026772,-175.85645,-413.81344)"><path
       style="fill:#f1f1de;fill-opacity:1;stroke:#c9c9bd;stroke-width:0.44933;stroke-linecap:butt;stroke-linejoin:miter;stroke-dasharray:none;stroke-opacity:1"
       d="m 110.4557,259.65521 v -10.1084 h 2.50852 v 1.5551 h 2.48924 v -1.74839 h 2.17398 v 1.76994 h 2.39719 v -1.49724 h 2.46749 v 10.25522 z"
       id="path4851-1-7" /><ellipse
       style="fill:#f1f1de;fill-opacity:1;stroke-width:0.204485"
       id="path277-7-0-0-5-5-0"
       cx="116.4968"
       cy="266.59348"
       rx="7.2154675"
       ry="1.6699657" /><ellipse
       style="fill:#f1f1de;fill-opacity:1;stroke-width:0.188793"
       id="path277-36-6-9-8"
       cx="116.49562"
       cy="266.20694"
       rx="7.1663136"
       ry="1.4332628" /><ellipse
       style="fill:#f1f1de;fill-opacity:1;stroke-width:0.188793"
       id="path277-7-1-9-7-1"
       cx="116.49347"
       cy="266.91968"
       rx="7.1663136"
       ry="1.4332628" /><ellipse
       style="fill:#c9c9bd;fill-opacity:1;stroke-width:0.16687"
       id="path277-3-0-3-7-9"
       cx="116.43715"
       cy="265.51047"
       rx="6.3341379"
       ry="1.2668276" /><ellipse
       style="fill:#f1f1de;fill-opacity:1;stroke-width:0.173985"
       id="path277-3-6-63-7-6-9"
       cx="116.4743"
       cy="264.7525"
       rx="6.6042395"
       ry="1.3208477" /><ellipse
       style="fill:#c9c9bd;fill-opacity:1;stroke-width:0.148189"
       id="path277-3-6-7-2-4-7-7"
       cx="116.41338"
       cy="264.61392"
       rx="5.6250391"
       ry="1.1250079" /><path
       style="fill:#f1f1de;fill-opacity:1;stroke:#c9c9bd;stroke-width:0.343598px;stroke-linecap:butt;stroke-linejoin:miter;stroke-opacity:1"
       d="m 111.36638,264.56207 0.58639,-2.87244 h 9.15714 l 0.54259,2.86887 z"
       id="path422-0-5-3-8" /><ellipse
       style="fill:#f1f1de;fill-opacity:1;stroke-width:0.128992"
       id="path277-3-6-5-6-2-6-2"
       cx="116.51162"
       cy="264.38654"
       rx="4.9310875"
       ry="0.97235858" /><ellipse
       style="fill:#c9c9bd;fill-opacity:1;stroke-width:0.14186"
       id="path277-3-6-3-1-5-5-5"
       cx="116.51534"
       cy="261.31219"
       rx="5.3847427"
       ry="1.0769484" /><ellipse
       style="fill:#f1f1de;fill-opacity:1;stroke-width:0.115473"
       id="path277-3-6-3-6-5-4-6-3"
       cx="116.47071"
       cy="261.18951"
       rx="4.3831487"
       ry="0.87662965" /><ellipse
       style="fill:#c9c9bd;fill-opacity:1;stroke-width:0.135463"
       id="path277-3-6-3-2-5-7-3-4"
       cx="116.49147"
       cy="260.5192"
       rx="5.141911"
       ry="1.0283821" /><ellipse
       style="fill:#f1f1de;fill-opacity:1;stroke-width:0.125871"
       id="path277-3-6-3-2-1-4-4-9-9"
       cx="116.56201"
       cy="260.2175"
       rx="5.1961865"
       ry="0.87863177" /><ellipse
       style="fill:#f1f1de;fill-opacity:1;stroke-width:0.147878"
       id="path277-3-6-3-2-1-4-4-0-8-4-0"
       cx="116.45533"
       cy="259.72635"
       rx="6.1046252"
       ry="1.0322412" /><ellipse
       style="fill:#f1f1de;fill-opacity:1;stroke-width:0.15235"
       id="path277-3-6-3-2-1-4-4-0-81-2"
       cx="116.4699"
       cy="260.00879"
       rx="6.2892675"
       ry="1.0634627" /><ellipse
       style="fill:#1a1a1a;stroke-width:0.451615"
       id="path2053-7-4-2-0"
       cx="115.49403"
       cy="263.63626"
       rx="0.55660665"
       ry="0.5905692" /><ellipse
       style="fill:#1a1a1a;stroke-width:0.451615"
       id="path2053-3-6-3-9-1"
       cx="117.55423"
       cy="263.63892"
       rx="0.55660665"
       ry="0.5905692" /><path
       style="fill:none;stroke:#c9c9bd;stroke-width:0.422045px;stroke-linecap:butt;stroke-linejoin:miter;stroke-opacity:1"
       d="m 110.30996,259.52639 c 7.4671,1.35524 12.21816,-0.0579 12.21816,-0.0579"
       id="path5256-3-9" /><path
       style="fill:#cbcbcb;fill-opacity:1;stroke:#c9c9bd;stroke-width:0.289002px;stroke-linecap:butt;stroke-linejoin:miter;stroke-opacity:1"
       d="m 115.54482,256.83327 c 0,-2.03432 0.0507,-2.69651 0.0507,-2.69651 0,0 0.0161,-0.72042 0.79979,-0.72408 0.78371,-0.004 1.04841,0.1689 1.05703,0.72621 0.009,0.55731 0,2.70598 0,2.70598 z"
       id="path5287-9-6" /><path
       style="fill:#adad9b;fill-opacity:1;stroke:#f1f1de;stroke-width:0.250638;stroke-linecap:butt;stroke-linejoin:miter;stroke-dasharray:none;stroke-opacity:1"
       d="m 115.66749,256.67389 c 0,-1.7653 0.0439,-2.3399 0.0439,-2.3399 0,0 0.014,-0.62514 0.69402,-0.62831 0.68007,-0.003 0.90976,0.14655 0.91724,0.63016 0.008,0.48362 0,2.34811 0,2.34811 z"
       id="path5287-8-0-2" /></g></svg>
